<?xml version="1.0" encoding="utf-8"?>
<!-- Generator: Adobe Illustrator 26.4.1, SVG Export Plug-In . SVG Version: 6.00 Build 0)  -->
<svg version="1.1" id="图层_1" xmlns="http://www.w3.org/2000/svg" xmlns:xlink="http://www.w3.org/1999/xlink" x="0px" y="0px"
	 viewBox="0 0 150 150" style="enable-background:new 0 0 150 150;" xml:space="preserve">
<style type="text/css">
	.st0{fill:#D89B21;}
	.st1{fill:#FFFFFF;}
</style>
<g>
	<path class="st0" d="M108.92,150H41.08C18.39,150,0,131.61,0,108.92V41.08C0,18.39,18.39,0,41.08,0h67.84
		C131.61,0,150,18.39,150,41.08v67.84C150,131.61,131.61,150,108.92,150z"/>
</g>
<g>
	<g>
		<g>
			<path class="st1" d="M45.15,48.53c0.16,0.04,0.16,0.04,0.32,0.07c0.55,0.14,0.99,0.32,1.31,0.79c0.18,0.48,0.19,0.97,0.21,1.47
				c0.06,1.99,0.39,4.16,1.89,5.68c1.08,0.93,2.38,1.37,3.83,1.33c2.03-0.22,3.58-1.42,5.02-2.7c1.07-0.92,1.07-0.92,1.71-0.91
				c1.31,0.26,2.65,1.59,3.6,2.43c0.21,0.18,0.41,0.36,0.63,0.53c0.47,0.39,0.91,0.81,1.35,1.22c0.11,0.12,0.11,0.12,0.23,0.22
				c0.41,0.4,0.82,0.81,1.2,1.24c0.22,0.24,0.44,0.46,0.67,0.69c1.53,1.55,1.53,1.55,1.52,2.19c-0.39,0.73-1.13,1.22-1.8,1.7
				c-1.51,1.08-2.58,2.52-2.9,4.33c-0.26,2.06,0.04,4.02,1.33,5.72c1.13,1.27,3.06,2.3,4.79,2.49c0.76,0.04,1.51,0.01,2.27-0.05
				c0.5-0.04,1.01-0.07,1.52-0.09c0.06,0,0.13-0.01,0.2-0.01c0.35-0.01,0.51,0.02,0.79,0.25c0.19,0.33,0.24,0.58,0.28,0.94
				c0.01,0.12,0.03,0.23,0.04,0.35c0.01,0.14,0.03,0.29,0.04,0.43c0.01,0.1,0.02,0.18,0.03,0.28c0.08,1.02,0.09,2.04,0.09,3.07
				c0.01,0.09,0.01,0.18,0.01,0.28c-0.01,6.11-0.01,6.11-1.04,7.63c-0.26,0.13-0.37,0.09-0.67,0.04c-0.09-0.01-0.18-0.02-0.27-0.04
				c-0.15-0.02-0.15-0.02-0.3-0.04c-2.9-0.4-5.83,0.09-8.23,1.78c-0.9,0.77-1.22,1.75-1.32,2.88c-0.11,2.33-0.08,4.47,1.65,6.3
				c0.33,0.34,0.69,0.64,1.08,0.91c0.26,0.18,0.39,0.31,0.58,0.57c0.03,0.91-0.82,1.68-1.4,2.33c-0.07,0.08-0.14,0.16-0.22,0.24
				c-0.22,0.25-0.45,0.48-0.69,0.72c-0.08,0.09-0.16,0.16-0.24,0.25c-1.04,1.04-2.26,1.87-3.5,2.67c-0.11,0.07-0.11,0.07-0.21,0.14
				c-0.44,0.27-0.75,0.38-1.29,0.31c-0.21-0.18-0.21-0.18-0.4-0.48c-1.23-1.86-3.23-3.3-5.49-3.89c-1.74-0.27-3.41-0.05-4.9,0.9
				c-1.51,1.13-2.27,2.55-2.55,4.34c-0.08,0.58-0.09,1.16-0.11,1.74c-0.1,2.22-0.1,2.22-0.46,2.73c-0.75,0.57-1.77,0.6-2.69,0.7
				c-0.21,0.02-0.42,0.05-0.64,0.07c-2.65,0.31-5.29,0.54-7.76-0.64c0.01-0.19,0.03-0.38,0.04-0.57c0.01-0.12,0.02-0.23,0.03-0.35
				c0.02-0.26,0.05-0.52,0.09-0.78c0.21-2.12,0.06-4.31-1.35-6.06c-0.35-0.38-0.76-0.6-1.23-0.81c-0.07-0.03-0.14-0.07-0.21-0.1
				c-1.13-0.45-2.61-0.26-3.71,0.17c-1.42,0.59-2.54,1.45-3.66,2.46c-0.26,0.23-0.52,0.46-0.8,0.69c-0.07,0.06-0.13,0.12-0.21,0.17
				c-0.35,0.29-0.59,0.4-1.07,0.39c-0.94-0.16-1.84-1.16-2.55-1.71c-0.25-0.2-0.5-0.39-0.76-0.6c-0.6-0.46-1.19-0.94-1.77-1.42
				c-0.24-0.2-0.49-0.41-0.75-0.62c-0.17-0.14-0.35-0.29-0.53-0.43c-0.18-0.15-0.37-0.31-0.56-0.45c-0.43-0.35-0.9-0.72-1.06-1.25
				c-0.04-0.74,0.3-1.3,0.69-1.93c1.15-2.04,1.86-4.61,1.23-6.91c-0.63-1.86-2.08-3.15-3.83-4.06c-1.52-0.73-2.98-1-4.67-1.08
				c-0.59-0.04-1.07-0.07-1.58-0.37c-0.35-0.4-0.49-0.79-0.62-1.29c-0.03-0.13-0.06-0.25-0.1-0.37C5.02,86,4.99,84.64,5,83.24
				c0-0.11,0-0.21,0-0.32c0-1.31,0.02-2.62,0.1-3.94c0.01-0.18,0.01-0.18,0.02-0.37c0.05-0.62,0.1-1.15,0.4-1.69
				c0.4-0.3,0.76-0.44,1.26-0.55c0.12-0.02,0.25-0.05,0.37-0.08c0.07-0.01,0.13-0.03,0.2-0.04c2.23-0.44,4.96-1.08,6.33-2.99
				c0.69-1.11,0.97-2.2,0.95-3.48c0-0.11,0-0.21-0.01-0.32c-0.05-2.38-0.93-4.53-2.02-6.65c-0.29-0.57-0.52-1.04-0.53-1.68
				c0.47-0.96,1.57-1.67,2.42-2.31c0.17-0.13,0.35-0.27,0.52-0.4c0.19-0.15,0.39-0.31,0.58-0.46c0.06-0.05,0.12-0.1,0.18-0.14
				c0.89-0.69,1.77-1.39,2.68-2.05c0.15-0.11,0.29-0.22,0.44-0.33c0.43-0.32,0.83-0.58,1.39-0.6c0.88,0.13,1.65,0.73,2.39,1.17
				c0.62,0.38,1.24,0.72,1.88,1.07c0.09,0.05,0.19,0.11,0.29,0.15c1.63,0.89,3.29,1.2,5.15,0.76c1.24-0.37,2.29-0.92,3.24-1.77
				c0.1-0.09,0.1-0.09,0.2-0.17c0.98-0.96,1.43-2.28,1.61-3.58c0.01-0.11,0.03-0.21,0.05-0.33c0.01-0.12,0.03-0.23,0.05-0.36
				c0.01-0.13,0.03-0.25,0.05-0.38c0.03-0.25,0.07-0.5,0.1-0.74c0.2-1.53,0.2-1.53,0.72-1.99C37.96,47.5,42.98,48.04,45.15,48.53z
				 M36.98,49.97c-0.29,0.78-0.32,1.65-0.4,2.46c-0.15,1.37-0.46,2.66-1.31,3.79c-0.09,0.13-0.09,0.13-0.19,0.26
				c-1.25,1.57-3.18,2.67-5.22,2.98c-2.42,0.29-4.12-0.38-6.18-1.51c-0.19-0.11-0.37-0.2-0.56-0.31c-1.42-0.77-1.42-0.77-1.99-1.1
				c-0.06-0.04-0.13-0.08-0.19-0.12c-0.17-0.1-0.34-0.19-0.51-0.3C20.16,56,20.16,56,19.93,56.09c-0.23,0.16-0.46,0.34-0.69,0.51
				c-0.1,0.08-0.2,0.15-0.3,0.24c-0.37,0.3-0.76,0.61-1.14,0.91c-0.34,0.28-0.69,0.55-1.03,0.82c-0.56,0.43-1.11,0.88-1.65,1.33
				c-0.19,0.16-0.38,0.32-0.58,0.47c-0.43,0.34-0.71,0.61-0.85,1.15c0.07,0.66,0.36,1.24,0.69,1.83c1.48,2.9,2.31,6.23,1.35,9.41
				c-0.6,1.68-2.01,2.81-3.62,3.58c-1.28,0.58-2.57,0.96-3.96,1.19c-0.55,0.1-0.99,0.17-1.41,0.55c-0.38,0.63-0.33,1.24-0.31,1.95
				c0,0.13,0,0.25,0.01,0.39c0,0.33,0.01,0.65,0.02,0.99c0.01,0.26,0.01,0.53,0.02,0.8c-0.15,2.71-0.15,2.71,0.36,5.3
				c0.39,0.36,0.73,0.46,1.24,0.57c0.07,0.02,0.14,0.03,0.22,0.05c0.14,0.03,0.29,0.07,0.44,0.1c0.39,0.08,0.79,0.16,1.17,0.25
				c0.12,0.03,0.12,0.03,0.23,0.05c2.51,0.56,4.97,1.73,6.47,3.8c0.7,1.11,1.15,2.36,1.21,3.66c0.01,0.09,0.01,0.17,0.02,0.26
				c0.06,1.94-0.52,3.72-1.26,5.51c-0.04,0.09-0.08,0.18-0.11,0.27c-0.08,0.18-0.15,0.36-0.23,0.53c-0.03,0.09-0.06,0.16-0.1,0.25
				c-0.04,0.1-0.04,0.1-0.09,0.21c-0.05,0.26,0.01,0.36,0.16,0.58c0.17,0.19,0.34,0.39,0.52,0.57c0.06,0.06,0.11,0.12,0.17,0.17
				c1.11,1.13,2.32,2.11,3.64,3.01c0.11,0.08,0.11,0.08,0.22,0.15c0.2,0.13,0.4,0.28,0.62,0.41c0.06,0.04,0.12,0.08,0.19,0.13
				c0.31,0.21,0.31,0.21,0.69,0.25c0.21-0.09,0.35-0.17,0.52-0.31c0.09-0.08,0.09-0.08,0.19-0.15c0.06-0.06,0.13-0.11,0.2-0.16
				c2.46-1.94,4.74-3.36,8.06-3.11c1.35,0.25,2.58,1.04,3.39,2.09c1.12,1.61,1.31,3.18,1.47,5.05c0.02,0.21,0.03,0.41,0.05,0.62
				c0.05,0.49,0.09,0.99,0.13,1.48c0.55,0.27,0.99,0.43,1.62,0.41c0.07,0,0.14,0,0.2-0.01c0.15,0,0.3,0,0.45-0.01
				c0.26-0.01,0.52-0.02,0.79-0.03c0.49-0.01,0.99-0.03,1.48-0.05c0.2-0.01,0.41-0.01,0.62-0.02c0.3-0.01,0.6-0.02,0.9-0.04
				c0.14,0,0.14,0,0.28-0.01c0.5-0.02,0.9-0.05,1.32-0.35c0.31-0.51,0.35-0.98,0.38-1.56c0.01-0.09,0.02-0.16,0.02-0.25
				c0.02-0.27,0.03-0.54,0.05-0.8c0.13-2.22,0.43-4.05,2.17-5.67c0.11-0.12,0.11-0.12,0.23-0.22c1.34-1.23,3.01-1.91,4.87-1.92
				c0.13-0.01,0.13-0.01,0.26-0.01c1.11-0.01,2.05,0.35,3.02,0.81c0.16,0.07,0.16,0.07,0.31,0.13c1.73,0.83,3.37,1.9,4.51,3.42
				c2.13-0.75,4-2.73,5.34-4.43c-0.14-0.39-0.34-0.66-0.63-0.98c-1.71-1.96-2.54-4.04-2.53-6.6c0-0.13,0-0.24-0.01-0.37
				c0-1.6,0.34-2.97,1.51-4.16c1.96-1.71,4.64-2.57,7.26-2.54c0.1,0,0.21,0,0.31,0c0.69,0.01,1.36,0.05,2.05,0.12
				c0.3-0.59,0.41-1.16,0.51-1.81c0.02-0.1,0.04-0.19,0.05-0.29c0.17-1.02,0.26-2.02,0.26-3.05c0-0.11,0-0.2,0-0.31
				c0-0.22,0-0.43,0-0.64c0-0.33,0-0.65,0-0.97c0.01-1.06-0.01-2.09-0.22-3.13c-0.09,0-0.18,0-0.28,0c-0.35-0.01-0.7-0.02-1.05-0.03
				c-0.15,0-0.3,0-0.45,0c-2.66-0.05-4.89-0.71-6.89-2.47c-1.52-1.53-2.39-3.77-2.52-5.87c-0.01-0.11-0.01-0.2-0.02-0.31
				c-0.07-2.19,0.79-3.89,2.32-5.47c0.42-0.4,0.88-0.78,1.33-1.16c0.15-0.13,0.3-0.25,0.45-0.38c0.12-0.11,0.23-0.2,0.35-0.3
				c-0.63-0.83-1.28-1.64-2.05-2.34c-0.18-0.17-0.34-0.35-0.5-0.53c-0.68-0.74-1.41-1.41-2.19-2.04c-0.12-0.1-0.23-0.19-0.35-0.3
				c-0.38-0.32-0.78-0.64-1.16-0.95c-0.09-0.08-0.19-0.15-0.28-0.23c-0.08-0.07-0.16-0.13-0.24-0.19c-0.1-0.08-0.1-0.08-0.2-0.15
				c-0.17-0.12-0.17-0.12-0.38-0.09c-0.26,0.12-0.43,0.27-0.65,0.46c-1.87,1.65-3.97,3.06-6.61,3.09c-1.62-0.1-3.35-0.69-4.46-1.87
				c-1.62-2.01-2.22-4.47-2.38-6.97c-0.01-0.23-0.01-0.23-0.12-0.5c-0.91-0.41-1.87-0.44-2.85-0.44c-0.14,0-0.29,0-0.43,0
				c-0.3,0-0.59,0-0.9,0c-0.38,0-0.77,0-1.14,0c-0.3,0-0.59,0-0.89,0c-0.14,0-0.28,0-0.42-0.01c-0.2,0-0.39,0-0.59,0.01
				c-0.11,0-0.22,0-0.33,0C37.39,49.51,37.24,49.67,36.98,49.97z"/>
			<path class="st1" d="M107.63,78.44c0.09,0,0.17,0,0.26,0c0.28,0,0.56,0,0.85,0c0.09,0,0.19,0,0.28,0
				c1.35,0.01,2.7,0.04,4.05,0.11c0.1,0,0.1,0,0.22,0.01c1.86,0.09,1.86,0.09,2.48,0.6c0.29,0.53,0.26,1.08,0.24,1.66
				c0,1.44,0.38,2.75,0.85,4.11c0.03,0.07,0.05,0.13,0.08,0.2c0.37,1.1,0.81,2.1,1.6,2.97c0,0.06,0,0.13,0,0.19
				c0.06,0.02,0.12,0.05,0.18,0.08c0.21,0.11,0.39,0.22,0.59,0.35c1.61,0.97,4.22,0.84,6.02,0.52c2.41-0.57,4.3-1.91,5.59-3.92
				c0.04-0.07,0.08-0.13,0.12-0.2c0.32,0.06,0.53,0.15,0.81,0.33c0.07,0.05,0.15,0.1,0.22,0.14c0.12,0.08,0.12,0.08,0.24,0.15
				c0.11,0.07,0.11,0.07,0.23,0.14c1.09,0.69,2.05,1.52,2.97,2.41c0.16,0.15,0.33,0.32,0.5,0.47c1.34,1.28,3.02,2.99,3.59,4.75
				c0,0.36-0.07,0.47-0.3,0.75c-0.41,0.39-0.88,0.72-1.36,1.04c-1.44,0.99-2.33,2.45-2.63,4.12c-0.17,1.47,0.15,2.72,0.97,3.99
				c0.06,0.09,0.06,0.09,0.12,0.18c0.81,1.05,2.37,1.44,3.64,1.68c0.76,0.12,1.52,0.14,2.29,0.17c1.65,0.1,1.65,0.1,2.06,0.52
				c0.34,0.56,0.35,1.18,0.38,1.81c0.01,0.14,0.01,0.14,0.02,0.3c0.03,0.35,0.04,0.68,0.06,1.02c0.01,0.13,0.02,0.27,0.03,0.41
				c0.07,1.08,0.1,2.16,0.1,3.24c0,0.27,0,0.54,0,0.81c0.01,1.26-0.02,2.51-0.74,3.62c-0.35,0.22-0.51,0.21-0.95,0.22
				c-0.19,0-0.19,0-0.39,0c-0.07,0.01-0.14,0.01-0.21,0.01c-2.57,0.04-4.92,0.29-6.9,2.04c-1.42,1.49-1.81,3.21-1.74,5.17
				c0.1,1.46,1.03,2.85,2.13,3.82c0.49,0.38,1,0.71,1.51,1.06c0.99,0.66,0.99,0.66,1.21,1.06c-0.02,0.62-0.19,0.99-0.56,1.49
				c-0.04,0.06-0.09,0.13-0.14,0.18c-0.55,0.76-1.17,1.39-1.92,1.98c-0.23,0.18-0.45,0.38-0.69,0.56c-0.1,0.08-0.1,0.08-0.19,0.15
				c-0.35,0.29-0.71,0.59-1.06,0.9c-0.42,0.37-0.87,0.71-1.31,1.06c-0.27,0.21-0.53,0.44-0.79,0.67c-0.69,0.58-1.37,1.1-2.32,1.09
				c-0.83-0.25-1.39-1.04-1.95-1.65c-1.48-1.62-3.74-2.83-6-3c-1.99-0.06-3.6,0.73-5.26,1.67c-0.1,0.06-0.21,0.12-0.32,0.18
				c-1.05,0.6-1.7,1.38-2.06,2.51c-0.14,0.55-0.17,1.07-0.17,1.63c0,0.09,0,0.17,0,0.27c0.01,0.65,0.1,1.28,0.23,1.93
				c0.14,0.74,0.27,1.49-0.05,2.2c-0.79,0.72-1.94,0.63-2.95,0.63c-0.11,0-0.22,0-0.34,0c-1.16-0.01-2.31-0.04-3.46-0.09
				c-0.35-0.01-0.7-0.02-1.04-0.03c-0.22-0.01-0.44-0.02-0.67-0.03c-0.1,0-0.2-0.01-0.31-0.01c-1.67-0.07-1.67-0.07-2.22-0.4
				c-0.2-0.31-0.27-0.63-0.33-0.97c-0.01-0.09-0.03-0.16-0.04-0.25c-0.11-0.53-0.2-1.07-0.3-1.61c-0.06-0.34-0.12-0.67-0.18-1
				c-0.05-0.25-0.09-0.5-0.13-0.75c-0.18-1.01-0.37-1.95-1.03-2.79c-0.08-0.12-0.08-0.12-0.17-0.23c-0.09-0.12-0.09-0.12-0.18-0.22
				c-0.06-0.09-0.12-0.16-0.19-0.25c-0.76-0.85-2-1.25-3.14-1.39c-2.05-0.13-3.97,0.23-5.65,1.44c-0.35,0.31-0.68,0.63-1.01,0.96
				c-0.97,0.94-0.97,0.94-1.71,0.96c-1.15-0.16-1.91-1.12-2.62-1.93c-0.13-0.15-0.27-0.31-0.41-0.46c-0.1-0.12-0.2-0.23-0.3-0.35
				c-0.33-0.37-0.67-0.73-1-1.1c-0.5-0.56-1.01-1.12-1.49-1.69c-0.16-0.18-0.31-0.37-0.46-0.54c-0.09-0.1-0.17-0.19-0.25-0.29
				c-0.11-0.13-0.11-0.13-0.22-0.25c-0.39-0.49-0.39-0.49-0.38-0.89c0.13-0.41,0.35-0.72,0.62-1.08c1.68-2.42,2.67-5.64,2.14-8.55
				c-0.36-1.15-1.09-2.11-2.18-2.71c-1.22-0.63-2.4-0.83-3.78-0.93c-2.27-0.17-2.27-0.17-2.75-0.71c-0.5-0.99-0.45-2.06-0.45-3.14
				c0-0.17,0-0.36,0-0.54c0-0.38,0-0.75,0.01-1.12c0-0.48,0-0.96,0-1.43c0-0.38,0-0.74,0-1.12c0-0.17,0-0.35,0-0.52
				c0-0.25,0-0.5,0-0.74c0-0.08,0-0.14,0-0.22c0.01-0.56,0.09-1.18,0.47-1.63c0.52-0.44,1.13-0.54,1.79-0.63
				c0.14-0.02,0.27-0.04,0.41-0.06c0.21-0.03,0.42-0.06,0.65-0.09c2.24-0.3,4.38-1.04,5.92-2.7c0.47-0.64,0.69-1.31,0.85-2.08
				c0.02-0.1,0.04-0.19,0.07-0.3c0.63-2.96-0.05-5.58-1.75-8.08c-0.15-0.21-0.31-0.42-0.47-0.63c-0.04-0.06-0.09-0.13-0.14-0.18
				c-0.09-0.13-0.18-0.24-0.28-0.37c-0.11-0.14-0.21-0.29-0.31-0.44c0.13-0.37,0.27-0.44,0.58-0.67c0.15-0.12,0.15-0.12,0.3-0.23
				c0.08-0.07,0.08-0.07,0.16-0.13c0.27-0.21,0.54-0.43,0.81-0.64c0.06-0.05,0.11-0.09,0.17-0.13c0.16-0.13,0.33-0.27,0.49-0.4
				c0.72-0.58,1.43-1.16,2.16-1.72c0.17-0.13,0.35-0.28,0.53-0.41c0.28-0.22,0.55-0.44,0.84-0.65c0.09-0.07,0.09-0.07,0.18-0.14
				c0.19-0.14,0.37-0.29,0.56-0.43c0.06-0.04,0.12-0.09,0.18-0.13c0.4-0.31,0.76-0.5,1.27-0.59c0.83,0.12,1.45,0.8,2.01,1.37
				c1.41,1.37,2.95,2.53,4.97,2.92c0.11,0.02,0.22,0.04,0.33,0.07c1.8,0.14,3.31-0.11,4.73-1.22c1.89-1.7,2.4-4.19,2.55-6.56
				c0.01-0.13,0.02-0.24,0.02-0.37c0.02-0.24,0.03-0.48,0.05-0.73c0-0.11,0.01-0.22,0.02-0.34c0-0.1,0.01-0.2,0.01-0.31
				c0.06-0.32,0.14-0.5,0.35-0.75C106.68,78.41,107.15,78.44,107.63,78.44z M107.36,79.72c-0.1,0.69-0.19,1.4-0.26,2.1
				c-0.22,2.37-0.58,4.75-2.36,6.57c-0.08,0.09-0.08,0.09-0.16,0.17c-1.1,1.16-2.73,1.74-4.35,1.84c-2.26,0.1-4.14-0.78-5.88-2.11
				c-0.06-0.05-0.12-0.11-0.19-0.15c-0.66-0.5-1.31-1-1.93-1.56c-0.26-0.22-0.41-0.32-0.76-0.43c-1.03,0.09-1.9,0.96-2.67,1.57
				c-0.09,0.07-0.18,0.14-0.28,0.22c-0.64,0.48-1.25,0.99-1.87,1.49c-0.25,0.21-0.51,0.42-0.77,0.63c-0.07,0.06-0.13,0.11-0.2,0.16
				c-0.12,0.1-0.25,0.2-0.37,0.3c-0.31,0.25-0.31,0.25-0.54,0.57c0.1,0.21,0.1,0.21,0.25,0.46c0.05,0.1,0.11,0.19,0.17,0.29
				c0.19,0.31,0.39,0.63,0.59,0.93c1.74,2.69,2.08,5.96,1.38,9.03c-0.46,1.59-1.4,2.81-2.9,3.63c-1.7,0.88-3.68,1.32-5.57,1.71
				c-0.72,0.16-0.72,0.16-1.29,0.6c-0.93,1.61-0.31,4.64-0.27,6.43c0.01,0.13,0.01,0.24,0.01,0.36c0,0.85,0,0.85,0.36,1.59
				c0.8,0.32,1.71,0.37,2.56,0.46c1.89,0.26,3.62,0.8,4.89,2.25c1.36,1.75,1.69,3.8,1.38,5.94c-0.11,0.59-0.27,1.16-0.46,1.74
				c-0.02,0.08-0.04,0.14-0.07,0.22c-0.47,1.53-1.17,2.95-2.05,4.3c0.33,0.49,0.71,0.95,1.08,1.42c0.06,0.08,0.13,0.14,0.19,0.23
				c0.96,1.16,1.96,2.29,3.05,3.35c0.06,0.06,0.12,0.11,0.17,0.16c0.4,0.39,0.4,0.39,0.86,0.71c0.45-0.07,0.73-0.34,1.06-0.63
				c0.12-0.11,0.25-0.21,0.38-0.32c0.09-0.08,0.09-0.08,0.19-0.15c1.97-1.63,3.97-2.34,6.57-2.2c1.77,0.14,3.59,1.05,4.75,2.32
				c0.78,0.94,1.2,1.9,1.42,3.07c0.02,0.11,0.04,0.21,0.06,0.32c0.06,0.33,0.13,0.65,0.19,0.98c0.08,0.43,0.17,0.87,0.25,1.3
				c0.02,0.11,0.04,0.2,0.06,0.3c0.12,0.6,0.24,1.2,0.77,1.59c0.35,0.1,0.71,0.13,1.07,0.16c0.09,0.01,0.17,0.02,0.26,0.03
				c3.41,0.35,3.41,0.35,6.76-0.13c0-0.06,0-0.12,0-0.17c-0.01-0.61-0.01-1.2-0.02-1.8c0-0.22,0-0.44-0.01-0.67
				c-0.03-1.95,0.05-3.72,1.48-5.27c2.06-1.81,5.23-2.99,8.01-2.91c2.54,0.13,4.6,1.6,6.37,3.22c0.53,0.46,1.06,0.91,1.61,1.35
				c0.44-0.23,0.8-0.52,1.18-0.84c0.12-0.1,0.25-0.2,0.37-0.31c0.06-0.05,0.12-0.11,0.19-0.15c0.24-0.2,0.5-0.4,0.76-0.6
				c0.44-0.35,0.86-0.7,1.28-1.07c0.26-0.22,0.52-0.42,0.8-0.64c1.33-0.98,1.33-0.98,2.28-2.27c-0.02-0.45-0.22-0.65-0.55-0.95
				c-0.09-0.09-0.18-0.17-0.28-0.25c-0.22-0.2-0.45-0.4-0.7-0.6c-1.54-1.28-2.64-3.31-2.82-5.28c-0.1-2.09,0.43-3.99,1.84-5.63
				c0.07-0.08,0.13-0.15,0.2-0.24c1.35-1.55,3.5-2.23,5.55-2.45c0.42-0.03,0.85-0.04,1.28-0.06c0.92-0.02,0.92-0.02,1.68-0.46
				c0.23-0.37,0.28-0.66,0.28-1.08c0-0.13,0-0.13,0-0.27c0-0.1,0-0.19,0-0.29c0-0.1,0.01-0.19,0.01-0.3c0-0.32,0-0.64,0-0.96
				c0-0.12,0-0.22,0-0.34c0.14-2.61,0.14-2.61-0.43-5.1c-0.25-0.05-0.25-0.05-0.55-0.07c-0.12-0.01-0.23-0.02-0.35-0.03
				c-0.13-0.01-0.25-0.02-0.38-0.03c-2.53-0.24-4.64-0.8-6.36-2.7c-1.14-1.41-1.64-3.02-1.52-4.78c0.31-2.08,1.31-3.98,3.02-5.29
				c0.41-0.3,0.41-0.3,0.71-0.67c0.1-1.08-0.96-2.12-1.65-2.91c-1.04-1.16-2.18-2.21-3.44-3.18c-0.06-0.04-0.12-0.09-0.18-0.13
				c-0.34-0.27-0.34-0.27-0.78-0.33c-0.18,0.12-0.18,0.12-0.36,0.28c-0.11,0.1-0.11,0.1-0.21,0.18c-0.22,0.2-0.43,0.41-0.65,0.63
				c-1.91,1.83-4.5,2.73-7.18,2.76c-1.93-0.02-3.94-0.26-5.41-1.54c-0.09-0.09-0.09-0.09-0.18-0.16c-1.71-1.68-2.18-4.54-2.73-6.74
				c-0.24-1.37-0.24-1.37-1.02-2.44c-1.26-0.47-2.75-0.4-4.08-0.4c-0.12,0-0.25,0-0.38,0C108.81,79.6,108.1,79.64,107.36,79.72z"/>
			<path class="st1" d="M101.49,5.01c1.88-0.04,3.73,0.1,5.58,0.43c0.11,0.02,0.22,0.04,0.33,0.06c1.36,0.26,1.36,0.26,1.81,0.71
				c0.24,0.37,0.28,0.67,0.28,1.1c0.08,2.62,0.46,5.41,2.5,7.35c1.11,1,2.47,1.49,3.98,1.46c1.71-0.07,3.6-0.64,4.79-1.87
				c0.11-0.13,0.22-0.24,0.32-0.37c0.32-0.36,0.68-0.66,1.06-0.96c0.05-0.05,0.11-0.1,0.16-0.14c0.91-0.72,0.91-0.72,1.48-0.74
				c0.75,0.17,1.25,0.58,1.81,1.06c0.08,0.06,0.16,0.13,0.24,0.19c0.26,0.22,0.51,0.44,0.77,0.67c0.06,0.05,0.12,0.1,0.17,0.15
				c1.5,1.35,3.3,3.2,3.86,5.14c-0.02,0.39-0.14,0.57-0.45,0.83c-1.8,1.65-3.05,3.72-3.11,6.14c0.05,2.07,0.81,3.89,2.35,5.35
				c1.41,1.26,3.34,1.77,5.19,2.06c0.73,0.12,1.32,0.3,1.85,0.81c1.56,2.17,0.97,6.06,0.53,8.51c-0.02,0.09-0.04,0.18-0.06,0.28
				c-0.03,0.18-0.06,0.37-0.08,0.55c-0.03,0.25-0.07,0.46-0.17,0.69c-0.54,0.36-1.24,0.38-1.89,0.46c-1.13,0.16-2.18,0.4-3.26,0.79
				c-0.08,0.03-0.16,0.06-0.24,0.09c-1.6,0.57-2.97,1.35-4.19,2.51c-0.09,0.09-0.09,0.09-0.2,0.18c-0.8,0.81-1.15,1.78-1.13,2.89
				c0.18,2.02,1.71,4.09,3.28,5.38c0.07,0.05,0.13,0.1,0.2,0.15c0.34,0.3,0.55,0.56,0.57,1.02c-0.5,1.41-1.61,2.72-2.67,3.79
				c-0.2,0.19-0.38,0.39-0.57,0.61c-0.35,0.39-0.73,0.76-1.12,1.13c-0.06,0.07-0.13,0.13-0.2,0.2c-0.14,0.13-0.28,0.27-0.42,0.4
				c-0.21,0.2-0.42,0.4-0.64,0.62c-0.14,0.13-0.28,0.26-0.41,0.39c-0.07,0.06-0.13,0.13-0.2,0.18c-0.48,0.46-0.9,0.8-1.61,0.86
				c-0.71-0.02-1.24-0.39-1.72-0.87c-0.22-0.26-0.44-0.51-0.66-0.77c-1.42-1.67-3.46-3.34-5.8-3.58c-1.91-0.11-3.52,0.4-4.98,1.59
				c-1.65,1.53-2,4.11-2.08,6.24c-0.01,0.99,0.11,1.98,0.2,2.97c-1.31,0.47-2.6,0.61-4,0.61c-0.12,0-0.24,0-0.37,0
				c-2.59-0.03-5.52-0.31-7.93-1.28c-0.23-0.34-0.21-0.41-0.17-0.8c0.01-0.1,0.02-0.18,0.03-0.27c0.03-0.18,0.06-0.38,0.09-0.55
				c0.25-1.53,0.14-3.18-0.35-4.64c-0.03-0.12-0.03-0.12-0.07-0.23c-0.35-1.04-0.78-1.95-1.44-2.85c-0.04-0.06-0.08-0.12-0.12-0.18
				c-0.66-0.88-1.84-1.35-2.9-1.55c-2.4-0.36-5.06,0.1-7.09,1.4c-0.33,0.27-0.62,0.58-0.92,0.89c-0.09,0.1-0.09,0.1-0.19,0.19
				c-0.12,0.13-0.24,0.26-0.37,0.39c-0.54,0.59-0.54,0.59-1.01,0.69c-0.75,0.03-1.26-0.41-1.81-0.87c-0.68-0.64-1.29-1.34-1.89-2.04
				c-0.2-0.25-0.41-0.48-0.63-0.72c-2.3-2.56-2.3-2.56-2.35-3.22c0.26-0.6,0.84-0.96,1.36-1.37c1.44-1.12,2.91-2.65,3.13-4.51
				c0.05-0.92,0.02-1.75-0.43-2.59c-0.04-0.08-0.08-0.16-0.12-0.24c-0.96-1.68-2.66-2.94-4.56-3.5c-0.62-0.16-1.23-0.22-1.88-0.21
				c-0.13,0.01-0.26,0.01-0.39,0.01c-0.2,0-0.41,0-0.62,0.01c-0.2,0-0.4,0-0.6,0c-0.17,0.01-0.17,0.01-0.35,0.01
				c-0.53-0.03-0.93-0.12-1.33-0.44c-1.71-2.21-0.56-7.51-0.23-10.05c0.01-0.07,0.01-0.13,0.02-0.2c0.17-1.36,0.17-1.36,0.48-1.84
				c0.48-0.34,0.97-0.34,1.54-0.34c2.3-0.08,4.35-0.64,6.32-1.78c0.06-0.04,0.12-0.07,0.18-0.11c1.08-0.63,1.84-1.35,2.19-2.52
				c0.09-0.43,0.1-0.84,0.1-1.27c0-0.14,0-0.14,0-0.28c-0.05-2.14-0.9-4.04-2.34-5.67c-1.26-1.44-1.26-1.44-1.27-2.28
				c-0.01-0.08-0.01-0.15-0.01-0.23c0.11-0.6,0.57-0.97,1.04-1.33c0.06-0.05,0.11-0.1,0.17-0.13c0.46-0.37,0.94-0.72,1.4-1.07
				c0.4-0.3,0.8-0.61,1.19-0.91c0.63-0.5,1.25-0.98,1.89-1.45c0.06-0.04,0.12-0.09,0.18-0.13c0.43-0.31,0.89-0.47,1.43-0.51
				c0.65,0.15,1.04,0.54,1.51,0.96c2.01,1.67,4.4,2.45,7.05,2.32c1.66-0.12,3.23-0.74,4.35-1.93c0.24-0.28,0.43-0.56,0.6-0.87
				c0.05-0.08,0.09-0.15,0.14-0.23c0.62-1.2,0.69-2.64,0.85-3.96c0.02-0.1,0.03-0.19,0.04-0.3c0.03-0.18,0.05-0.38,0.07-0.56
				c0.08-0.64,0.16-1.28,0.68-1.73c0.82-0.37,1.71-0.39,2.6-0.41c0.12,0,0.23,0,0.35-0.01C100.62,5.03,101.06,5.02,101.49,5.01z
				 M98.39,6.56c-0.37,0.66-0.41,1.34-0.46,2.08c-0.13,2.01-0.59,3.89-2.06,5.43c-0.05,0.06-0.1,0.12-0.16,0.17
				c-1.28,1.33-3.28,2.01-5.14,2.08c-2.87,0.04-5.49-1.08-7.75-2.71c-0.06-0.04-0.12-0.08-0.18-0.13c-0.16-0.12-0.32-0.23-0.48-0.35
				c-0.27-0.16-0.27-0.16-0.52-0.1c-0.38,0.21-0.74,0.45-1.1,0.69c-0.07,0.05-0.15,0.11-0.23,0.15c-0.56,0.39-1.12,0.8-1.66,1.23
				c-0.05,0.04-0.1,0.08-0.15,0.13c-0.87,0.68-1.68,1.41-2.47,2.19c0.34,0.51,0.69,1.02,1.04,1.52c1.8,2.54,3.15,5.22,2.53,8.39
				c-0.47,1.67-1.98,2.81-3.48,3.65c-1.96,1.05-4.05,1.43-6.28,1.51c-0.32,0.05-0.5,0.13-0.77,0.33c-0.26,0.45-0.25,0.94-0.28,1.44
				c0,0.1-0.01,0.19-0.02,0.29c-0.02,0.31-0.03,0.62-0.05,0.92c-0.02,0.21-0.03,0.42-0.04,0.64c-0.44,3.22-0.44,3.22-0.01,6.33
				c0.3,0.26,0.51,0.33,0.92,0.35c0.15,0.01,0.15,0.01,0.3,0.01c0.1,0.01,0.2,0.02,0.31,0.02c1.5,0.1,2.85,0.34,4.21,0.97
				c0.09,0.04,0.18,0.08,0.27,0.12c1.91,0.92,3.54,2.45,4.3,4.36c0.54,1.7,0.39,3.4-0.43,5.01c-0.68,1.14-1.68,2.06-2.63,2.99
				c-0.06,0.07-0.12,0.13-0.18,0.19c-0.06,0.05-0.11,0.11-0.17,0.16c-0.14,0.17-0.24,0.34-0.34,0.55c0.73,0.9,1.45,1.82,2.22,2.7
				c0.05,0.05,0.1,0.11,0.15,0.16c0.59,0.67,1.19,1.34,1.87,1.95c0.53-0.32,1.03-0.66,1.51-1.03c2.37-1.76,5.2-2.79,8.24-2.47
				c1.99,0.31,3.8,1.3,5,2.86c0.72,1.07,1.18,2.2,1.48,3.44c0.04,0.14,0.04,0.14,0.08,0.3c0.25,1.07,0.28,2.12,0.29,3.21
				c0.01,0.18,0.01,0.37,0.01,0.55c0.01,0.44,0.02,0.9,0.02,1.34c1.63,0.35,3.26,0.57,4.91,0.75c0.1,0.01,0.19,0.02,0.29,0.03
				c0.9,0.11,1.8,0.2,2.72,0.22c0.11,0,0.22,0,0.34,0c0.39-0.06,0.54-0.13,0.81-0.42c0.1-0.3,0.13-0.59,0.16-0.89
				c0.03-0.19,0.05-0.38,0.07-0.56c0.01-0.1,0.03-0.18,0.04-0.29c0.06-0.48,0.13-0.97,0.2-1.45c0.01-0.1,0.03-0.2,0.04-0.3
				c0.03-0.2,0.06-0.39,0.09-0.6c0.03-0.2,0.06-0.4,0.08-0.61c0.29-2.08,0.74-3.6,2.54-4.94c1.72-1.16,3.63-1.87,5.75-1.54
				c2.46,0.53,4.46,1.95,6.16,3.69c0.07,0.07,0.14,0.13,0.21,0.21c0.14,0.14,0.28,0.28,0.41,0.42c0.19,0.18,0.35,0.35,0.57,0.49
				c1.21,0.02,2.21-0.9,3.02-1.64c1-0.93,1.88-1.93,2.69-3c0.12-0.15,0.24-0.32,0.37-0.47c0.06-0.08,0.12-0.16,0.19-0.25
				c0.08-0.1,0.08-0.1,0.16-0.2c0.17-0.32,0.22-0.53,0.21-0.89c-0.15-0.32-0.36-0.59-0.58-0.87c-0.12-0.16-0.24-0.33-0.36-0.49
				c-0.06-0.08-0.12-0.16-0.18-0.24c-1.47-1.94-2.65-3.81-2.4-6.3c0.3-1.59,1.32-2.82,2.68-3.73c1.89-1.2,3.96-1.86,6.14-2.41
				c0.23-0.06,0.46-0.12,0.7-0.18c0.06-0.01,0.13-0.03,0.2-0.05c0.57-0.15,1.01-0.39,1.31-0.9c0.08-0.33,0.11-0.64,0.13-0.97
				c0-0.07,0.01-0.13,0.01-0.21c0.01-0.22,0.02-0.45,0.04-0.67c0-0.08,0-0.15,0.01-0.23c0.05-1.02,0.09-2.03,0.1-3.04
				c0-0.15,0-0.15,0-0.3c0-0.68-0.01-1.42-0.45-1.98c-0.58-0.53-1.28-0.61-2.06-0.72c-0.88-0.14-1.65-0.32-2.46-0.68
				c-0.09-0.05-0.18-0.09-0.27-0.13c-2.17-1.05-3.83-2.88-4.6-5.07c-0.66-2-0.7-3.78,0.32-5.68c0.66-1.17,1.38-2.33,2.18-3.43
				c0.06-0.09,0.13-0.18,0.2-0.28c0.05-0.07,0.11-0.14,0.17-0.22c0.11-0.22,0.11-0.22,0.02-0.49c-0.44-0.96-1.03-1.82-1.75-2.61
				c-0.07-0.09-0.14-0.16-0.21-0.24c-0.54-0.61-1.14-1.12-1.8-1.59c-0.1-0.08-0.21-0.15-0.32-0.23c-0.1-0.08-0.21-0.14-0.31-0.22
				c-0.1-0.07-0.2-0.13-0.29-0.2c-0.27-0.14-0.27-0.14-0.53-0.08c-0.32,0.19-0.57,0.43-0.84,0.7c-0.1,0.11-0.21,0.2-0.32,0.31
				c-0.05,0.06-0.1,0.11-0.15,0.15c-0.3,0.29-0.63,0.56-0.96,0.82c-0.13,0.11-0.13,0.11-0.26,0.21c-1.8,1.38-4.04,1.71-6.3,1.48
				c-1.63-0.21-2.89-0.96-4.02-2.08c-0.06-0.07-0.13-0.13-0.2-0.2c-1.44-1.49-2.02-3.4-2.34-5.35c-0.01-0.07-0.02-0.13-0.03-0.2
				c-0.06-0.34-0.11-0.67-0.16-1.01c-0.02-0.13-0.04-0.25-0.06-0.38c-0.02-0.12-0.04-0.23-0.05-0.35c-0.1-0.41-0.24-0.75-0.56-1.06
				c-0.28-0.15-0.53-0.18-0.86-0.23c-0.13-0.01-0.25-0.03-0.38-0.05c-0.13-0.01-0.26-0.03-0.39-0.05c-0.13-0.01-0.26-0.03-0.39-0.05
				C101.83,5.69,101.83,5.69,98.39,6.56z"/>
			<path class="st1" d="M121.28,97.33c0.09,0.07,0.17,0.13,0.26,0.19c4.37,3.22,6.25,8.28,6.94,13.39c0.2,1.87,0.21,3.84-0.24,5.67
				c-0.02,0.07-0.03,0.14-0.05,0.21c-0.37,1.54-1,3.02-1.97,4.31c-0.07,0.1-0.14,0.19-0.21,0.29c-1.03,1.35-2.3,2.5-3.72,3.47
				c-0.07,0.05-0.13,0.09-0.2,0.13c-0.99,0.68-2,1.35-3.02,1.98c-0.09,0.06-0.19,0.12-0.28,0.18c-3.69,2.31-6.6,3.18-11.03,2.51
				c-0.59-0.09-1.18-0.14-1.77-0.19c-3.42-0.3-6.77-2.08-9.2-4.33c-0.06-0.05-0.11-0.11-0.17-0.15c-0.43-0.4-0.81-0.83-1.17-1.29
				c-0.06-0.07-0.11-0.14-0.17-0.22c-0.17-0.21-0.33-0.42-0.5-0.64c-0.05-0.06-0.09-0.12-0.14-0.18c-1.4-1.83-2.37-3.99-2.77-6.22
				c-0.01-0.07-0.02-0.13-0.03-0.19c-0.25-1.6-0.04-3.25,0.11-4.84c0.03-0.35,0.07-0.68,0.1-1.03c0.36-3.94,1.43-7.2,4.24-10.16
				c0.06-0.07,0.12-0.13,0.18-0.19c3.5-3.54,9-5.13,13.91-5.68c0.15-0.02,0.31-0.04,0.46-0.06
				C114.66,93.84,118.25,95.07,121.28,97.33z M105.75,96.66c-0.13,0.04-0.13,0.04-0.27,0.07c-2.92,0.79-5.56,2.22-7.79,4.17
				c-0.07,0.06-0.14,0.12-0.21,0.18c-2.66,2.4-3.69,5.6-4.12,8.96c-0.01,0.1-0.02,0.19-0.04,0.29c-0.28,2.23-0.3,4.51,0.14,6.74
				c0.02,0.09,0.03,0.16,0.05,0.25c0.25,1.22,0.68,2.25,1.36,3.31c0.06,0.1,0.06,0.1,0.12,0.19c0.99,1.5,2.16,3.01,3.61,4.14
				c0.09,0.08,0.18,0.14,0.28,0.22c1.14,0.88,2.37,1.59,3.73,2.12c0.11,0.05,0.11,0.05,0.22,0.09c1.51,0.57,3.12,0.83,4.72,0.99
				c0.27,0.03,0.54,0.06,0.82,0.1c3.61,0.39,6.43-0.12,9.39-2.18c0.49-0.35,1.01-0.67,1.51-1c0.85-0.55,1.69-1.1,2.52-1.68
				c0.08-0.06,0.08-0.06,0.17-0.13c2.7-1.91,4.52-4.36,5.05-7.57c0.16-1.05,0.19-2.11,0.07-3.17c-0.05-0.45-0.07-0.9-0.08-1.36
				c-0.09-3.41-1.26-7.91-3.7-10.5c-0.07-0.08-0.14-0.15-0.21-0.24c-2.36-2.58-5.57-4.73-9.23-4.98
				C111.15,95.55,108.35,95.97,105.75,96.66z"/>
			<path class="st1" d="M51.25,69.53c0.92,0.76,1.71,1.58,2.47,2.48c0.08,0.09,0.15,0.18,0.23,0.27c1.15,1.39,2.1,2.9,2.95,4.46
				c0.06,0.11,0.12,0.21,0.18,0.32c1.35,2.51,1.19,5.28,0.46,7.95c-0.03,0.13-0.03,0.13-0.07,0.26c-0.7,2.55-1.9,4.92-3.76,6.86
				c-0.12,0.13-0.24,0.27-0.36,0.41c-2.74,2.95-7.26,5.38-11.41,5.64c-2.83,0.11-5.6-0.31-8.19-1.43c-0.11-0.05-0.21-0.09-0.33-0.13
				c-1.48-0.67-2.78-1.61-3.95-2.71c-0.15-0.14-0.3-0.29-0.46-0.42c-1.7-1.57-3.03-3.49-4.12-5.5c-0.03-0.06-0.06-0.12-0.09-0.17
				c-0.81-1.48-1.35-3.09-1.62-4.74c-0.01-0.08-0.03-0.15-0.04-0.23c-0.03-0.21-0.05-0.42-0.06-0.64c-0.01-0.1-0.01-0.18-0.02-0.28
				c-0.11-4.34,1.32-9.16,4.5-12.36C33.97,63.39,44.68,64.18,51.25,69.53z M28.41,70.65c-0.41,0.44-0.71,0.95-1.01,1.46
				c-0.05,0.08-0.09,0.15-0.14,0.23c-1.01,1.7-1.92,3.44-2.38,5.35c-0.02,0.08-0.04,0.15-0.06,0.23c-0.18,0.9-0.18,1.8-0.18,2.71
				c0,0.28,0,0.55,0,0.83c-0.02,2.05,0.42,3.92,1.35,5.77c0.05,0.1,0.09,0.19,0.14,0.29c0.47,0.92,1.04,1.76,1.67,2.59
				c0.04,0.06,0.09,0.12,0.14,0.18c0.54,0.71,1.14,1.39,1.77,2.03c0.07,0.08,0.15,0.15,0.23,0.24c2.52,2.52,6.47,4.1,10.1,4.22
				c1.29,0.02,2.54,0,3.78-0.32c0.1-0.03,0.1-0.03,0.21-0.05c4.18-1.1,8.33-4.16,10.5-7.72c1.78-3.02,2.33-6.74,1.37-10.09
				c-1.35-4.34-4.88-8.17-9-10.32c-2.28-1.15-4.53-1.63-7.08-1.61c-0.09,0-0.18,0-0.27,0.01C35.54,66.71,31.41,67.95,28.41,70.65z"
				/>
			<path class="st1" d="M113.41,24.56c0.41,0.34,0.82,0.69,1.21,1.06c0.07,0.06,0.14,0.12,0.21,0.18c1.09,0.97,1.98,2.23,2.71,3.48
				c0.04,0.07,0.08,0.13,0.12,0.19c2.16,3.57,2.6,7.48,1.51,11.46c-0.51,1.67-1.33,3.28-2.34,4.72c-0.04,0.05-0.07,0.11-0.11,0.16
				c-2.4,3.39-5.77,5.74-9.77,7.15c-0.12,0.04-0.24,0.09-0.36,0.13c-1.29,0.44-2.7,0.79-4.07,0.84c-0.06,0-0.13,0.01-0.2,0.01
				c-1.79,0.06-3.45-0.2-5.14-0.78c-0.1-0.03-0.19-0.07-0.29-0.1c-2.35-0.86-4.65-2.41-6.46-4.04c-0.09-0.09-0.19-0.17-0.29-0.26
				c-3.1-2.81-5.09-6.92-5.25-11c-0.06-3.51,1.12-6.97,3.43-9.72c0.05-0.07,0.11-0.13,0.16-0.19c0.41-0.49,0.83-0.96,1.25-1.44
				c0.08-0.1,0.08-0.1,0.16-0.18c2.7-3.05,5.66-5.43,9.98-5.86C104.59,19.97,109.77,21.68,113.41,24.56z M91.56,26.28
				c-0.18,0.19-0.36,0.39-0.53,0.59c-0.08,0.09-0.16,0.18-0.25,0.28c-1.98,2.18-3.6,4.58-4.29,7.42c-0.02,0.09-0.05,0.18-0.07,0.27
				c-0.81,3.51,0.33,7.15,2.29,10.13c0.32,0.46,0.66,0.9,1.01,1.35c0.09,0.13,0.09,0.13,0.19,0.26c0.87,1.13,2.15,1.85,3.35,2.6
				c0.56,0.36,1.1,0.72,1.63,1.12c1.75,1.28,3.46,1.91,5.68,1.92c0.07,0,0.15,0,0.23,0c0.17,0,0.34,0,0.5,0
				c0.25,0,0.5,0.01,0.75,0.01c2.33,0.02,4.43-0.52,6.52-1.47c0.06-0.03,0.12-0.06,0.19-0.09c1.43-0.66,2.75-1.54,3.91-2.59
				c0.2-0.18,0.41-0.36,0.63-0.52c2.77-2.32,4.42-5.77,4.94-9.18c0.01-0.07,0.02-0.13,0.03-0.21c0.18-1.19,0.23-2.3-0.02-3.48
				c-0.02-0.08-0.03-0.16-0.05-0.25c-0.5-2.31-1.48-4.57-3.08-6.39c-0.09-0.11-0.18-0.21-0.27-0.33c-0.5-0.59-1.02-1.13-1.64-1.6
				c-0.1-0.08-0.2-0.16-0.3-0.24C106.29,20.64,97.48,20.11,91.56,26.28z"/>
		</g>
	</g>
</g>
</svg>
