<?xml version="1.0" encoding="utf-8"?>
<!-- Generator: Adobe Illustrator 26.4.1, SVG Export Plug-In . SVG Version: 6.00 Build 0)  -->
<svg version="1.1" id="图层_1" xmlns="http://www.w3.org/2000/svg" xmlns:xlink="http://www.w3.org/1999/xlink" x="0px" y="0px"
	 viewBox="0 0 520 140" style="enable-background:new 0 0 520 140;" xml:space="preserve">
<style type="text/css">
	.st0{fill:#D89B21;}
	.st1{fill:#D89B21;}
</style>
<g id="content" transform="matrix(1,0,0,1,213.5,245.0375)">
	<g>
		<g>
			<g>
				<path class="st0" d="M-173.38-201.1c0.15,0.04,0.15,0.04,0.3,0.07c0.51,0.14,0.91,0.31,1.21,0.76c0.17,0.47,0.18,0.94,0.2,1.42
					c0.06,1.93,0.36,4.02,1.74,5.49c1,0.9,2.2,1.32,3.53,1.28c1.87-0.21,3.3-1.37,4.63-2.6c0.99-0.89,0.99-0.89,1.58-0.88
					c1.21,0.25,2.45,1.53,3.32,2.34c0.2,0.18,0.38,0.34,0.58,0.51c0.44,0.38,0.84,0.78,1.25,1.18c0.1,0.11,0.1,0.11,0.21,0.21
					c0.38,0.39,0.75,0.78,1.11,1.2c0.2,0.23,0.41,0.45,0.61,0.67c1.41,1.5,1.41,1.5,1.4,2.11c-0.36,0.71-1.04,1.18-1.67,1.65
					c-1.4,1.04-2.38,2.44-2.68,4.19c-0.24,1.99,0.04,3.89,1.23,5.53c1.04,1.23,2.82,2.22,4.42,2.41c0.7,0.04,1.4,0.01,2.09-0.05
					c0.47-0.04,0.93-0.07,1.4-0.08c0.06,0,0.12-0.01,0.19-0.01c0.33-0.01,0.47,0.02,0.73,0.24c0.18,0.32,0.22,0.56,0.26,0.91
					c0.01,0.11,0.03,0.22,0.04,0.33c0.01,0.14,0.03,0.28,0.04,0.42c0.01,0.09,0.02,0.18,0.03,0.27c0.07,0.99,0.08,1.97,0.08,2.97
					c0.01,0.08,0.01,0.18,0.01,0.27c-0.01,5.91-0.01,5.91-0.96,7.38c-0.24,0.12-0.34,0.08-0.61,0.04c-0.08-0.01-0.17-0.02-0.25-0.04
					c-0.14-0.02-0.14-0.02-0.28-0.04c-2.68-0.39-5.38,0.08-7.59,1.72c-0.83,0.74-1.13,1.69-1.22,2.78c-0.1,2.25-0.07,4.32,1.53,6.08
					c0.31,0.33,0.63,0.61,1,0.88c0.24,0.18,0.36,0.3,0.54,0.55c0.03,0.88-0.75,1.63-1.29,2.25c-0.07,0.07-0.13,0.16-0.2,0.23
					c-0.2,0.24-0.42,0.47-0.63,0.7c-0.07,0.08-0.15,0.16-0.22,0.24c-0.96,1-2.08,1.8-3.23,2.58c-0.1,0.07-0.1,0.07-0.2,0.14
					c-0.41,0.26-0.69,0.36-1.19,0.3c-0.2-0.18-0.2-0.18-0.37-0.47c-1.13-1.8-2.98-3.19-5.06-3.76c-1.61-0.26-3.14-0.05-4.52,0.87
					c-1.4,1.09-2.09,2.47-2.35,4.2c-0.07,0.56-0.08,1.13-0.1,1.68c-0.09,2.15-0.09,2.15-0.43,2.64c-0.69,0.55-1.64,0.58-2.48,0.68
					c-0.2,0.02-0.39,0.05-0.59,0.07c-2.45,0.3-4.88,0.52-7.16-0.61c0.01-0.19,0.03-0.36,0.04-0.55c0.01-0.11,0.02-0.22,0.03-0.33
					c0.02-0.25,0.05-0.5,0.08-0.75c0.2-2.05,0.06-4.17-1.25-5.86c-0.33-0.36-0.7-0.58-1.13-0.78c-0.07-0.03-0.13-0.07-0.2-0.09
					c-1.04-0.44-2.41-0.25-3.42,0.17c-1.31,0.57-2.34,1.4-3.38,2.38c-0.24,0.22-0.48,0.45-0.73,0.67c-0.07,0.06-0.12,0.11-0.2,0.17
					c-0.33,0.28-0.55,0.39-0.99,0.37c-0.87-0.16-1.69-1.12-2.35-1.66c-0.23-0.2-0.47-0.38-0.7-0.58c-0.56-0.45-1.1-0.91-1.64-1.38
					c-0.22-0.2-0.46-0.4-0.69-0.6c-0.16-0.14-0.33-0.28-0.49-0.42c-0.17-0.15-0.34-0.3-0.52-0.44c-0.4-0.33-0.83-0.7-0.98-1.21
					c-0.04-0.72,0.28-1.26,0.63-1.86c1.06-1.97,1.71-4.46,1.13-6.68c-0.58-1.8-1.92-3.04-3.53-3.93c-1.4-0.71-2.75-0.97-4.31-1.04
					c-0.55-0.04-0.99-0.07-1.46-0.35c-0.33-0.39-0.46-0.76-0.57-1.25c-0.03-0.12-0.06-0.24-0.09-0.35c-0.27-1.35-0.3-2.66-0.29-4.02
					c0-0.1,0-0.2,0-0.31c0-1.27,0.02-2.53,0.09-3.8c0.01-0.18,0.01-0.18,0.02-0.35c0.05-0.6,0.09-1.11,0.37-1.64
					c0.37-0.29,0.7-0.43,1.16-0.53c0.11-0.02,0.23-0.05,0.34-0.07c0.07-0.01,0.12-0.03,0.19-0.04c2.06-0.43,4.58-1.04,5.84-2.89
					c0.63-1.07,0.89-2.13,0.87-3.37c0-0.1,0-0.2-0.01-0.31c-0.05-2.3-0.86-4.38-1.86-6.43c-0.27-0.55-0.48-1-0.49-1.62
					c0.44-0.93,1.45-1.61,2.23-2.23c0.16-0.13,0.33-0.26,0.48-0.39c0.18-0.15,0.36-0.3,0.54-0.45c0.06-0.05,0.11-0.09,0.17-0.14
					c0.82-0.67,1.64-1.34,2.47-1.98c0.14-0.1,0.27-0.21,0.41-0.32c0.4-0.31,0.76-0.56,1.28-0.58c0.81,0.13,1.53,0.71,2.2,1.13
					c0.57,0.36,1.14,0.7,1.73,1.03c0.08,0.05,0.18,0.1,0.27,0.15c1.51,0.86,3.03,1.16,4.75,0.73c1.14-0.35,2.11-0.89,2.99-1.71
					c0.09-0.08,0.09-0.08,0.19-0.17c0.9-0.93,1.32-2.2,1.49-3.46c0.01-0.1,0.03-0.2,0.05-0.32c0.01-0.11,0.03-0.22,0.05-0.34
					c0.01-0.12,0.03-0.24,0.05-0.36c0.03-0.24,0.07-0.48,0.09-0.72c0.19-1.48,0.19-1.48,0.66-1.93
					C-180.01-202.09-175.38-201.56-173.38-201.1z M-180.92-199.7c-0.27,0.75-0.3,1.59-0.37,2.38c-0.14,1.32-0.43,2.57-1.21,3.67
					c-0.08,0.12-0.08,0.12-0.18,0.25c-1.15,1.52-2.93,2.58-4.82,2.88c-2.23,0.28-3.8-0.36-5.7-1.46c-0.18-0.1-0.34-0.2-0.52-0.3
					c-1.31-0.74-1.31-0.74-1.83-1.06c-0.06-0.04-0.12-0.07-0.18-0.11c-0.16-0.09-0.32-0.19-0.47-0.29
					c-0.24-0.13-0.24-0.13-0.45-0.05c-0.21,0.16-0.43,0.33-0.63,0.49c-0.09,0.07-0.19,0.15-0.28,0.23c-0.34,0.29-0.7,0.59-1.05,0.88
					c-0.32,0.27-0.63,0.53-0.95,0.79c-0.52,0.42-1.02,0.85-1.53,1.28c-0.18,0.16-0.35,0.31-0.54,0.46c-0.4,0.33-0.65,0.59-0.78,1.11
					c0.07,0.64,0.33,1.2,0.63,1.77c1.37,2.8,2.13,6.02,1.25,9.09c-0.56,1.62-1.85,2.72-3.34,3.46c-1.18,0.56-2.37,0.93-3.66,1.15
					c-0.51,0.09-0.91,0.17-1.3,0.53c-0.35,0.6-0.31,1.2-0.29,1.89c0,0.12,0,0.24,0.01,0.37c0,0.32,0.01,0.63,0.02,0.96
					c0.01,0.25,0.01,0.51,0.02,0.77c-0.14,2.62-0.14,2.62,0.33,5.13c0.36,0.34,0.67,0.45,1.14,0.55c0.07,0.02,0.13,0.03,0.2,0.05
					c0.13,0.03,0.27,0.07,0.41,0.09c0.36,0.07,0.73,0.16,1.08,0.24c0.11,0.03,0.11,0.03,0.21,0.05c2.32,0.54,4.59,1.67,5.97,3.67
					c0.64,1.07,1.06,2.28,1.12,3.53c0.01,0.08,0.01,0.17,0.02,0.25c0.06,1.88-0.48,3.59-1.16,5.32c-0.04,0.08-0.07,0.18-0.1,0.26
					c-0.07,0.18-0.14,0.34-0.21,0.51c-0.03,0.08-0.06,0.16-0.09,0.24c-0.04,0.09-0.04,0.09-0.08,0.2c-0.05,0.25,0.01,0.34,0.15,0.56
					c0.16,0.19,0.32,0.37,0.48,0.55c0.06,0.06,0.1,0.11,0.16,0.17c1.02,1.09,2.14,2.04,3.36,2.91c0.1,0.07,0.1,0.07,0.2,0.15
					c0.19,0.13,0.37,0.27,0.57,0.4c0.06,0.04,0.11,0.07,0.18,0.12c0.29,0.2,0.29,0.2,0.63,0.24c0.2-0.08,0.33-0.17,0.48-0.3
					c0.08-0.07,0.08-0.07,0.18-0.15c0.06-0.06,0.12-0.1,0.19-0.16c2.27-1.88,4.37-3.25,7.43-3c1.25,0.24,2.38,1,3.13,2.02
					c1.03,1.55,1.21,3.07,1.36,4.88c0.02,0.2,0.03,0.4,0.05,0.6c0.05,0.47,0.08,0.96,0.12,1.43c0.51,0.26,0.91,0.42,1.5,0.4
					c0.07,0,0.13,0,0.19-0.01c0.14,0,0.28,0,0.42-0.01c0.24-0.01,0.48-0.02,0.73-0.03c0.46-0.01,0.91-0.03,1.37-0.05
					c0.19-0.01,0.38-0.01,0.57-0.02c0.28-0.01,0.56-0.02,0.83-0.04c0.13,0,0.13,0,0.26-0.01c0.47-0.02,0.83-0.05,1.22-0.33
					c0.29-0.49,0.33-0.95,0.35-1.51c0.01-0.08,0.02-0.16,0.02-0.24c0.02-0.26,0.03-0.52,0.05-0.77c0.12-2.15,0.4-3.92,2-5.48
					c0.1-0.11,0.1-0.11,0.21-0.21c1.24-1.19,2.78-1.84,4.49-1.85c0.12-0.01,0.12-0.01,0.24-0.01c1.02-0.01,1.89,0.33,2.79,0.78
					c0.15,0.07,0.15,0.07,0.29,0.13c1.6,0.8,3.11,1.83,4.16,3.3c1.96-0.73,3.69-2.64,4.93-4.28c-0.13-0.38-0.32-0.64-0.58-0.95
					c-1.58-1.9-2.34-3.91-2.33-6.38c0-0.12,0-0.23-0.01-0.35c0-1.54,0.32-2.87,1.4-4.02c1.8-1.66,4.28-2.48,6.7-2.46
					c0.09,0,0.2,0,0.29,0c0.63,0.01,1.26,0.05,1.89,0.11c0.28-0.57,0.38-1.13,0.47-1.75c0.02-0.09,0.04-0.19,0.05-0.28
					c0.16-0.99,0.24-1.95,0.24-2.95c0-0.1,0-0.2,0-0.3c0-0.21,0-0.42,0-0.62c0-0.32,0-0.63,0-0.94c0.01-1.02-0.01-2.02-0.2-3.02
					c-0.08,0-0.17,0-0.26,0c-0.33-0.01-0.64-0.02-0.97-0.03c-0.14,0-0.28,0-0.42,0c-2.46-0.05-4.51-0.69-6.35-2.39
					c-1.4-1.48-2.2-3.65-2.33-5.67c-0.01-0.1-0.01-0.2-0.02-0.3c-0.07-2.11,0.73-3.76,2.14-5.28c0.39-0.39,0.81-0.75,1.23-1.12
					c0.14-0.12,0.28-0.24,0.42-0.36c0.11-0.1,0.21-0.2,0.33-0.29c-0.58-0.8-1.18-1.58-1.89-2.26c-0.17-0.17-0.32-0.33-0.47-0.51
					c-0.62-0.72-1.3-1.36-2.02-1.97c-0.11-0.09-0.21-0.19-0.33-0.29c-0.35-0.31-0.72-0.61-1.07-0.92c-0.08-0.07-0.18-0.15-0.26-0.22
					c-0.07-0.07-0.15-0.12-0.22-0.19c-0.09-0.07-0.09-0.07-0.19-0.15c-0.16-0.11-0.16-0.11-0.35-0.08c-0.24,0.11-0.4,0.26-0.6,0.45
					c-1.72,1.59-3.67,2.96-6.1,2.99c-1.5-0.09-3.09-0.67-4.11-1.8c-1.5-1.94-2.05-4.32-2.2-6.73c-0.01-0.22-0.01-0.22-0.11-0.48
					c-0.84-0.4-1.72-0.43-2.63-0.43c-0.13,0-0.27,0-0.4,0c-0.28,0-0.55,0-0.83,0c-0.35,0-0.71,0-1.05,0c-0.28,0-0.55,0-0.82,0
					c-0.13,0-0.26,0-0.39-0.01c-0.19,0-0.36,0-0.55,0.01c-0.1,0-0.2,0-0.31,0C-180.54-200.15-180.68-199.99-180.92-199.7z"/>
				<path class="st0" d="M-115.74-172.19c0.08,0,0.16,0,0.24,0c0.26,0,0.52,0,0.78,0c0.08,0,0.18,0,0.26,0
					c1.25,0.01,2.49,0.04,3.74,0.1c0.09,0,0.09,0,0.2,0.01c1.71,0.08,1.71,0.08,2.29,0.58c0.27,0.51,0.24,1.04,0.22,1.6
					c0,1.4,0.35,2.66,0.78,3.97c0.03,0.07,0.05,0.13,0.07,0.2c0.34,1.06,0.74,2.03,1.48,2.87c0,0.06,0,0.12,0,0.19
					c0.06,0.02,0.11,0.05,0.17,0.07c0.2,0.1,0.36,0.21,0.55,0.33c1.49,0.94,3.9,0.81,5.55,0.5c2.22-0.55,3.96-1.84,5.15-3.79
					c0.04-0.07,0.07-0.13,0.11-0.2c0.3,0.06,0.49,0.15,0.74,0.32c0.07,0.05,0.14,0.09,0.2,0.14c0.11,0.07,0.11,0.07,0.22,0.15
					c0.1,0.07,0.1,0.07,0.21,0.14c1,0.67,1.89,1.47,2.74,2.33c0.15,0.15,0.31,0.31,0.47,0.46c1.24,1.24,2.79,2.89,3.31,4.59
					c0,0.34-0.07,0.46-0.28,0.73c-0.38,0.38-0.81,0.7-1.26,1c-1.33,0.96-2.15,2.37-2.43,3.98c-0.16,1.42,0.14,2.63,0.89,3.85
					c0.06,0.08,0.06,0.08,0.11,0.18c0.74,1.01,2.19,1.4,3.36,1.62c0.7,0.11,1.4,0.14,2.11,0.17c1.53,0.09,1.53,0.09,1.9,0.5
					c0.32,0.54,0.33,1.14,0.35,1.75c0.01,0.14,0.01,0.14,0.02,0.29c0.03,0.33,0.04,0.66,0.06,0.99c0.01,0.13,0.02,0.26,0.03,0.4
					c0.07,1.04,0.09,2.08,0.09,3.13c0,0.26,0,0.52,0,0.78c0.01,1.22-0.02,2.43-0.68,3.5c-0.33,0.21-0.47,0.2-0.87,0.21
					c-0.18,0-0.18,0-0.36,0c-0.07,0.01-0.13,0.01-0.2,0.01c-2.37,0.04-4.54,0.28-6.36,1.97c-1.31,1.44-1.67,3.1-1.61,5
					c0.09,1.41,0.95,2.75,1.96,3.69c0.46,0.36,0.92,0.69,1.4,1.02c0.91,0.64,0.91,0.64,1.12,1.02c-0.02,0.6-0.18,0.96-0.52,1.44
					c-0.04,0.06-0.08,0.12-0.13,0.18c-0.51,0.73-1.08,1.34-1.77,1.92c-0.21,0.18-0.42,0.36-0.63,0.54
					c-0.09,0.07-0.09,0.07-0.18,0.15c-0.33,0.28-0.65,0.57-0.98,0.87c-0.39,0.35-0.8,0.69-1.21,1.02c-0.25,0.2-0.49,0.43-0.73,0.65
					c-0.63,0.56-1.27,1.06-2.14,1.05c-0.76-0.24-1.28-1-1.8-1.59c-1.37-1.56-3.45-2.73-5.53-2.9c-1.83-0.06-3.32,0.71-4.86,1.61
					c-0.09,0.06-0.2,0.11-0.3,0.18c-0.97,0.58-1.57,1.33-1.9,2.43c-0.13,0.53-0.16,1.03-0.16,1.57c0,0.08,0,0.17,0,0.26
					c0.01,0.63,0.09,1.24,0.21,1.86c0.13,0.72,0.25,1.44-0.05,2.13c-0.73,0.7-1.79,0.6-2.73,0.6c-0.1,0-0.2,0-0.32,0
					c-1.07-0.01-2.13-0.04-3.19-0.08c-0.33-0.01-0.64-0.02-0.96-0.03c-0.2-0.01-0.41-0.02-0.61-0.03c-0.09,0-0.19-0.01-0.29-0.01
					c-1.54-0.07-1.54-0.07-2.05-0.39c-0.19-0.3-0.25-0.6-0.31-0.94c-0.01-0.08-0.03-0.16-0.04-0.24c-0.1-0.51-0.19-1.03-0.28-1.55
					c-0.06-0.33-0.11-0.65-0.17-0.97c-0.05-0.24-0.08-0.48-0.12-0.73c-0.17-0.98-0.34-1.89-0.95-2.7c-0.07-0.11-0.07-0.11-0.16-0.22
					c-0.08-0.11-0.08-0.11-0.17-0.21c-0.06-0.08-0.11-0.16-0.18-0.24c-0.7-0.82-1.84-1.21-2.89-1.34c-1.89-0.12-3.67,0.22-5.21,1.4
					c-0.33,0.3-0.62,0.6-0.93,0.93c-0.89,0.91-0.89,0.91-1.58,0.93c-1.06-0.16-1.76-1.08-2.42-1.86c-0.12-0.15-0.25-0.3-0.38-0.45
					c-0.09-0.11-0.19-0.22-0.28-0.33c-0.31-0.35-0.61-0.71-0.92-1.06c-0.47-0.54-0.93-1.08-1.38-1.64
					c-0.15-0.18-0.29-0.35-0.43-0.52c-0.08-0.09-0.16-0.19-0.23-0.28c-0.1-0.12-0.1-0.12-0.2-0.24c-0.36-0.47-0.36-0.47-0.35-0.86
					c0.12-0.4,0.33-0.7,0.57-1.04c1.55-2.33,2.47-5.45,1.97-8.26c-0.33-1.11-1-2.04-2.01-2.61c-1.13-0.6-2.21-0.8-3.49-0.9
					c-2.09-0.17-2.09-0.17-2.54-0.69c-0.47-0.96-0.42-1.99-0.42-3.03c0-0.17,0-0.34,0-0.52c0-0.36,0-0.73,0.01-1.08
					c0-0.47,0-0.93,0-1.39c0-0.36,0-0.72,0-1.08c0-0.17,0-0.33,0-0.5c0-0.24,0-0.48,0-0.72c0-0.07,0-0.14,0-0.21
					c0.01-0.54,0.08-1.14,0.44-1.57c0.48-0.43,1.04-0.52,1.66-0.6c0.13-0.02,0.25-0.04,0.38-0.06c0.2-0.03,0.39-0.06,0.6-0.08
					c2.07-0.29,4.04-1,5.46-2.6c0.44-0.62,0.63-1.27,0.78-2.01c0.02-0.09,0.04-0.19,0.07-0.29c0.58-2.86-0.05-5.4-1.62-7.8
					c-0.14-0.2-0.29-0.41-0.44-0.6c-0.04-0.06-0.08-0.12-0.13-0.18c-0.08-0.12-0.17-0.23-0.26-0.35c-0.1-0.14-0.2-0.28-0.29-0.43
					c0.12-0.35,0.25-0.43,0.54-0.65c0.14-0.11,0.14-0.11,0.28-0.22c0.07-0.07,0.07-0.07,0.15-0.12c0.25-0.2,0.5-0.42,0.74-0.62
					c0.06-0.05,0.1-0.08,0.16-0.13c0.15-0.13,0.31-0.26,0.46-0.39c0.66-0.56,1.32-1.12,1.99-1.67c0.16-0.13,0.33-0.27,0.49-0.4
					c0.26-0.21,0.51-0.43,0.77-0.63c0.08-0.07,0.08-0.07,0.17-0.14c0.18-0.14,0.34-0.28,0.52-0.42c0.06-0.04,0.11-0.08,0.17-0.13
					c0.37-0.3,0.7-0.48,1.17-0.57c0.76,0.11,1.34,0.77,1.85,1.32c1.3,1.32,2.73,2.45,4.59,2.82c0.1,0.02,0.2,0.04,0.31,0.07
					c1.67,0.14,3.05-0.1,4.36-1.18c1.74-1.65,2.21-4.05,2.35-6.33c0.01-0.12,0.02-0.23,0.02-0.35c0.02-0.23,0.03-0.47,0.05-0.71
					c0-0.1,0.01-0.21,0.02-0.33c0-0.09,0.01-0.2,0.01-0.3c0.06-0.31,0.13-0.48,0.33-0.73
					C-116.61-172.22-116.19-172.19-115.74-172.19z M-115.99-170.95c-0.09,0.67-0.18,1.35-0.24,2.03c-0.2,2.29-0.54,4.59-2.18,6.34
					c-0.07,0.08-0.07,0.08-0.15,0.17c-1.01,1.13-2.52,1.68-4.01,1.78c-2.08,0.09-3.82-0.75-5.42-2.04c-0.06-0.05-0.11-0.1-0.18-0.15
					c-0.6-0.48-1.21-0.97-1.78-1.51c-0.24-0.21-0.38-0.31-0.7-0.42c-0.95,0.08-1.75,0.93-2.47,1.52c-0.08,0.07-0.17,0.14-0.26,0.21
					c-0.59,0.47-1.15,0.96-1.72,1.44c-0.23,0.2-0.47,0.41-0.71,0.6c-0.07,0.06-0.12,0.1-0.19,0.16c-0.11,0.09-0.23,0.2-0.34,0.29
					c-0.29,0.24-0.29,0.24-0.5,0.55c0.09,0.2,0.09,0.2,0.23,0.45c0.05,0.09,0.1,0.19,0.16,0.28c0.18,0.3,0.36,0.6,0.55,0.9
					c1.61,2.6,1.92,5.76,1.27,8.73c-0.43,1.53-1.29,2.72-2.68,3.51c-1.57,0.85-3.4,1.27-5.13,1.66c-0.66,0.16-0.66,0.16-1.19,0.58
					c-0.86,1.55-0.29,4.48-0.25,6.21c0.01,0.12,0.01,0.23,0.01,0.34c0,0.82,0,0.82,0.33,1.53c0.73,0.31,1.58,0.35,2.36,0.45
					c1.74,0.25,3.34,0.77,4.51,2.18c1.26,1.69,1.56,3.67,1.27,5.74c-0.1,0.57-0.25,1.13-0.43,1.68c-0.02,0.07-0.04,0.14-0.07,0.21
					c-0.44,1.48-1.08,2.85-1.89,4.16c0.31,0.47,0.65,0.92,1,1.37c0.06,0.07,0.12,0.14,0.18,0.22c0.88,1.13,1.8,2.21,2.81,3.24
					c0.06,0.06,0.11,0.1,0.16,0.16c0.37,0.38,0.37,0.38,0.79,0.69c0.42-0.07,0.67-0.33,0.98-0.6c0.11-0.1,0.23-0.2,0.35-0.31
					c0.08-0.07,0.08-0.07,0.18-0.15c1.81-1.57,3.67-2.26,6.07-2.13c1.64,0.14,3.31,1.01,4.38,2.24c0.72,0.91,1.11,1.83,1.31,2.97
					c0.02,0.1,0.04,0.2,0.06,0.31c0.06,0.32,0.12,0.63,0.18,0.95c0.07,0.42,0.16,0.84,0.23,1.26c0.02,0.1,0.04,0.2,0.06,0.29
					c0.11,0.58,0.22,1.16,0.71,1.53c0.33,0.09,0.65,0.13,0.99,0.16c0.08,0.01,0.16,0.02,0.24,0.03c3.14,0.33,3.14,0.33,6.23-0.12
					c0-0.06,0-0.11,0-0.17c-0.01-0.59-0.01-1.16-0.02-1.74c0-0.21,0-0.43-0.01-0.65c-0.03-1.89,0.05-3.59,1.37-5.09
					c1.9-1.75,4.83-2.89,7.39-2.81c2.34,0.13,4.24,1.54,5.88,3.11c0.49,0.45,0.98,0.88,1.49,1.3c0.41-0.22,0.73-0.5,1.09-0.81
					c0.11-0.09,0.23-0.2,0.34-0.3c0.06-0.05,0.11-0.1,0.18-0.15c0.22-0.2,0.47-0.39,0.7-0.58c0.41-0.33,0.79-0.68,1.18-1.03
					c0.24-0.21,0.48-0.41,0.73-0.61c1.23-0.95,1.23-0.95,2.1-2.2c-0.02-0.44-0.2-0.63-0.51-0.92c-0.08-0.08-0.17-0.17-0.26-0.24
					c-0.2-0.2-0.42-0.39-0.64-0.58c-1.42-1.24-2.44-3.2-2.6-5.1c-0.09-2.02,0.4-3.85,1.69-5.44c0.07-0.07,0.12-0.15,0.19-0.23
					c1.25-1.5,3.23-2.16,5.12-2.37c0.39-0.03,0.78-0.04,1.18-0.06c0.85-0.02,0.85-0.02,1.55-0.45c0.21-0.35,0.26-0.64,0.26-1.04
					c0-0.13,0-0.13,0-0.26c0-0.09,0-0.19,0-0.28c0-0.09,0.01-0.19,0.01-0.29c0-0.31,0-0.62,0-0.93c0-0.11,0-0.21,0-0.33
					c0.13-2.52,0.13-2.52-0.4-4.93c-0.23-0.05-0.23-0.05-0.51-0.07c-0.11-0.01-0.21-0.02-0.33-0.03c-0.12-0.01-0.23-0.02-0.35-0.03
					c-2.33-0.23-4.28-0.77-5.87-2.6c-1.05-1.36-1.52-2.92-1.4-4.62c0.29-2.01,1.21-3.84,2.79-5.12c0.38-0.29,0.38-0.29,0.65-0.65
					c0.09-1.04-0.88-2.05-1.53-2.81c-0.96-1.13-2.01-2.14-3.17-3.07c-0.06-0.04-0.11-0.08-0.17-0.13c-0.32-0.26-0.32-0.26-0.72-0.32
					c-0.17,0.11-0.17,0.11-0.33,0.27c-0.1,0.09-0.1,0.09-0.2,0.18c-0.2,0.2-0.4,0.4-0.6,0.6c-1.76,1.77-4.15,2.64-6.62,2.67
					c-1.78-0.02-3.64-0.25-5-1.49c-0.08-0.08-0.08-0.08-0.17-0.16c-1.58-1.62-2.01-4.39-2.52-6.51c-0.22-1.32-0.22-1.32-0.94-2.35
					c-1.16-0.46-2.54-0.39-3.77-0.39c-0.11,0-0.23,0-0.35,0C-114.65-171.07-115.31-171.03-115.99-170.95z"/>
				<path class="st0" d="M-121.4-243.15c1.73-0.04,3.44,0.09,5.14,0.42c0.1,0.02,0.2,0.04,0.31,0.06c1.26,0.25,1.26,0.25,1.67,0.69
					c0.22,0.35,0.26,0.65,0.26,1.06c0.07,2.53,0.43,5.23,2.31,7.11c1.02,0.97,2.28,1.44,3.67,1.41c1.58-0.07,3.32-0.61,4.42-1.8
					c0.1-0.12,0.2-0.23,0.3-0.35c0.3-0.34,0.62-0.64,0.98-0.93c0.05-0.05,0.1-0.09,0.15-0.14c0.84-0.7,0.84-0.7,1.37-0.72
					c0.69,0.17,1.15,0.56,1.67,1.02c0.07,0.06,0.15,0.12,0.22,0.19c0.24,0.21,0.47,0.43,0.71,0.65c0.06,0.05,0.11,0.09,0.16,0.15
					c1.39,1.3,3.04,3.09,3.56,4.97c-0.02,0.38-0.13,0.55-0.42,0.8c-1.67,1.59-2.81,3.59-2.87,5.93c0.05,2,0.74,3.76,2.17,5.17
					c1.3,1.22,3.08,1.71,4.79,1.99c0.67,0.11,1.22,0.29,1.7,0.78c1.44,2.09,0.89,5.86,0.49,8.22c-0.02,0.08-0.04,0.18-0.06,0.27
					c-0.03,0.18-0.06,0.35-0.07,0.53c-0.03,0.24-0.07,0.45-0.16,0.67c-0.5,0.34-1.14,0.36-1.74,0.45c-1.04,0.16-2.01,0.39-3,0.76
					c-0.07,0.03-0.15,0.06-0.22,0.08c-1.48,0.55-2.74,1.3-3.87,2.43c-0.08,0.08-0.08,0.08-0.19,0.18c-0.73,0.78-1.06,1.72-1.04,2.79
					c0.17,1.95,1.58,3.95,3.02,5.2c0.07,0.05,0.12,0.09,0.19,0.15c0.32,0.29,0.51,0.54,0.53,0.99c-0.47,1.36-1.49,2.63-2.47,3.67
					c-0.19,0.19-0.35,0.38-0.53,0.59c-0.33,0.37-0.67,0.73-1.03,1.09c-0.06,0.07-0.12,0.13-0.19,0.2c-0.13,0.13-0.26,0.26-0.39,0.39
					c-0.2,0.2-0.39,0.39-0.59,0.6c-0.13,0.12-0.26,0.25-0.38,0.38c-0.07,0.06-0.12,0.12-0.19,0.18c-0.45,0.45-0.83,0.77-1.49,0.83
					c-0.65-0.02-1.14-0.38-1.59-0.84c-0.2-0.25-0.41-0.49-0.6-0.74c-1.31-1.61-3.19-3.23-5.35-3.46c-1.76-0.1-3.25,0.39-4.6,1.53
					c-1.53,1.48-1.84,3.97-1.92,6.03c-0.01,0.96,0.1,1.92,0.19,2.87c-1.21,0.46-2.4,0.59-3.69,0.59c-0.11,0-0.22,0-0.34,0
					c-2.39-0.03-5.09-0.3-7.31-1.24c-0.21-0.33-0.2-0.4-0.16-0.77c0.01-0.09,0.02-0.18,0.03-0.26c0.03-0.18,0.06-0.36,0.08-0.53
					c0.23-1.48,0.13-3.07-0.33-4.48c-0.03-0.11-0.03-0.11-0.07-0.22c-0.33-1-0.72-1.89-1.33-2.75c-0.04-0.06-0.07-0.11-0.11-0.18
					c-0.6-0.85-1.69-1.3-2.68-1.5c-2.21-0.34-4.67,0.09-6.54,1.35c-0.31,0.26-0.57,0.56-0.85,0.86c-0.08,0.09-0.08,0.09-0.18,0.19
					c-0.11,0.13-0.22,0.25-0.34,0.38c-0.5,0.57-0.5,0.57-0.93,0.67c-0.69,0.03-1.16-0.4-1.67-0.84c-0.62-0.61-1.19-1.29-1.74-1.97
					c-0.19-0.24-0.38-0.47-0.58-0.7c-2.12-2.47-2.12-2.47-2.17-3.11c0.24-0.58,0.77-0.93,1.26-1.32c1.33-1.08,2.69-2.56,2.88-4.35
					c0.05-0.89,0.02-1.69-0.4-2.5c-0.04-0.07-0.07-0.16-0.11-0.23c-0.88-1.62-2.46-2.84-4.2-3.39c-0.57-0.16-1.13-0.21-1.73-0.2
					c-0.12,0.01-0.24,0.01-0.36,0.01c-0.19,0-0.38,0-0.57,0.01c-0.19,0-0.37,0-0.56,0c-0.16,0.01-0.16,0.01-0.33,0.01
					c-0.49-0.03-0.86-0.11-1.23-0.43c-1.58-2.14-0.52-7.26-0.21-9.71c0.01-0.07,0.01-0.13,0.02-0.2c0.16-1.31,0.16-1.31,0.45-1.78
					c0.45-0.33,0.89-0.33,1.42-0.33c2.12-0.07,4.01-0.62,5.83-1.72c0.06-0.04,0.11-0.07,0.17-0.1c1-0.6,1.69-1.3,2.02-2.44
					c0.08-0.42,0.09-0.81,0.09-1.23c0-0.14,0-0.14,0-0.27c-0.05-2.07-0.83-3.91-2.16-5.48c-1.16-1.4-1.16-1.4-1.17-2.2
					c-0.01-0.07-0.01-0.15-0.01-0.22c0.1-0.58,0.53-0.94,0.96-1.28c0.06-0.05,0.1-0.09,0.16-0.13c0.43-0.35,0.87-0.7,1.29-1.03
					c0.37-0.29,0.73-0.59,1.1-0.88c0.58-0.48,1.15-0.95,1.74-1.4c0.06-0.04,0.11-0.08,0.17-0.13c0.4-0.3,0.82-0.46,1.32-0.49
					c0.6,0.15,0.96,0.52,1.4,0.93c1.85,1.61,4.06,2.37,6.5,2.24c1.53-0.11,2.98-0.72,4.01-1.87c0.22-0.27,0.4-0.54,0.56-0.84
					c0.05-0.07,0.08-0.15,0.13-0.22c0.57-1.16,0.63-2.55,0.78-3.82c0.02-0.09,0.03-0.19,0.04-0.29c0.03-0.18,0.05-0.36,0.07-0.54
					c0.07-0.61,0.15-1.24,0.62-1.67c0.75-0.35,1.58-0.37,2.4-0.4c0.11,0,0.21,0,0.33-0.01C-122.2-243.13-121.8-243.14-121.4-243.15z
					 M-124.27-241.65c-0.34,0.64-0.38,1.29-0.43,2.01c-0.12,1.94-0.55,3.76-1.9,5.25c-0.05,0.06-0.09,0.11-0.15,0.17
					c-1.18,1.28-3.02,1.94-4.74,2.01c-2.65,0.04-5.06-1.04-7.15-2.61c-0.06-0.04-0.11-0.07-0.17-0.12c-0.15-0.11-0.3-0.22-0.45-0.33
					c-0.25-0.16-0.25-0.16-0.48-0.09c-0.35,0.2-0.68,0.44-1.01,0.67c-0.07,0.05-0.14,0.1-0.21,0.15c-0.52,0.38-1.03,0.77-1.53,1.19
					c-0.05,0.04-0.09,0.07-0.14,0.12c-0.8,0.66-1.55,1.36-2.28,2.11c0.32,0.49,0.63,0.99,0.96,1.47c1.67,2.46,2.9,5.04,2.33,8.11
					c-0.44,1.61-1.82,2.72-3.21,3.53c-1.8,1.01-3.74,1.39-5.8,1.46c-0.3,0.05-0.47,0.13-0.71,0.32c-0.24,0.44-0.23,0.91-0.26,1.4
					c0,0.09-0.01,0.19-0.02,0.28c-0.02,0.3-0.03,0.6-0.05,0.89c-0.02,0.2-0.03,0.41-0.04,0.61c-0.41,3.12-0.41,3.12-0.01,6.12
					c0.28,0.25,0.47,0.32,0.85,0.33c0.14,0.01,0.14,0.01,0.28,0.01c0.09,0.01,0.19,0.02,0.29,0.02c1.39,0.09,2.63,0.33,3.89,0.94
					c0.08,0.04,0.17,0.07,0.25,0.11c1.76,0.89,3.27,2.36,3.96,4.21c0.5,1.65,0.36,3.28-0.4,4.84c-0.62,1.1-1.55,1.99-2.43,2.89
					c-0.06,0.07-0.11,0.12-0.17,0.19c-0.06,0.05-0.1,0.1-0.16,0.16c-0.13,0.17-0.22,0.33-0.32,0.53c0.67,0.87,1.34,1.76,2.05,2.6
					c0.05,0.05,0.09,0.1,0.14,0.16c0.55,0.65,1.1,1.29,1.72,1.89c0.49-0.31,0.95-0.64,1.4-1c2.19-1.7,4.8-2.7,7.6-2.39
					c1.83,0.3,3.51,1.26,4.61,2.76c0.66,1.03,1.09,2.13,1.37,3.32c0.04,0.14,0.04,0.14,0.07,0.29c0.23,1.03,0.26,2.05,0.27,3.1
					c0.01,0.18,0.01,0.35,0.01,0.53c0.01,0.43,0.02,0.87,0.02,1.29c1.51,0.33,3,0.55,4.53,0.73c0.09,0.01,0.18,0.02,0.27,0.03
					c0.83,0.1,1.67,0.2,2.51,0.21c0.1,0,0.2,0,0.32,0c0.36-0.06,0.5-0.13,0.74-0.41c0.09-0.29,0.12-0.57,0.15-0.86
					c0.03-0.19,0.05-0.36,0.07-0.54c0.01-0.09,0.03-0.18,0.04-0.28c0.06-0.47,0.12-0.94,0.19-1.4c0.01-0.09,0.03-0.2,0.04-0.29
					c0.03-0.2,0.06-0.38,0.08-0.58s0.06-0.39,0.07-0.59c0.27-2.01,0.68-3.48,2.34-4.77c1.59-1.12,3.35-1.8,5.3-1.49
					c2.27,0.51,4.11,1.89,5.68,3.56c0.07,0.07,0.13,0.13,0.2,0.2c0.13,0.14,0.26,0.27,0.38,0.41c0.18,0.18,0.33,0.33,0.53,0.47
					c1.12,0.02,2.04-0.87,2.79-1.58c0.92-0.9,1.73-1.87,2.48-2.9c0.11-0.15,0.22-0.31,0.34-0.46c0.06-0.07,0.11-0.16,0.18-0.24
					c0.07-0.09,0.07-0.09,0.15-0.2c0.16-0.31,0.2-0.51,0.2-0.86c-0.14-0.31-0.33-0.57-0.54-0.84c-0.11-0.16-0.22-0.32-0.33-0.47
					c-0.06-0.07-0.11-0.16-0.17-0.23c-1.36-1.88-2.45-3.68-2.21-6.08c0.28-1.53,1.22-2.73,2.47-3.6c1.74-1.16,3.66-1.8,5.67-2.33
					c0.21-0.06,0.43-0.11,0.64-0.18c0.06-0.01,0.12-0.03,0.19-0.05c0.53-0.15,0.93-0.37,1.21-0.87c0.07-0.32,0.1-0.61,0.12-0.94
					c0-0.07,0.01-0.13,0.01-0.2c0.01-0.21,0.02-0.44,0.04-0.65c0-0.07,0-0.15,0.01-0.22c0.05-0.99,0.08-1.96,0.09-2.94
					c0-0.15,0-0.15,0-0.29c0-0.66-0.01-1.38-0.42-1.92c-0.54-0.51-1.18-0.59-1.9-0.7c-0.81-0.14-1.53-0.31-2.27-0.66
					c-0.08-0.05-0.17-0.08-0.25-0.12c-2-1.01-3.53-2.78-4.24-4.9c-0.6-1.93-0.64-3.66,0.3-5.49c0.6-1.13,1.27-2.25,2.01-3.31
					c0.06-0.08,0.12-0.18,0.19-0.27c0.05-0.07,0.1-0.14,0.16-0.21c0.1-0.21,0.1-0.21,0.02-0.47c-0.41-0.93-0.95-1.76-1.62-2.52
					c-0.07-0.08-0.13-0.16-0.2-0.23c-0.5-0.59-1.05-1.08-1.67-1.53c-0.09-0.07-0.2-0.15-0.3-0.22c-0.09-0.07-0.2-0.14-0.29-0.21
					c-0.09-0.07-0.19-0.13-0.27-0.2c-0.25-0.14-0.25-0.14-0.49-0.07c-0.3,0.19-0.53,0.42-0.77,0.68c-0.09,0.1-0.2,0.2-0.3,0.3
					c-0.05,0.06-0.09,0.1-0.14,0.15c-0.28,0.28-0.58,0.54-0.88,0.79c-0.12,0.1-0.12,0.1-0.24,0.2c-1.67,1.33-3.73,1.66-5.81,1.43
					c-1.51-0.2-2.67-0.93-3.71-2.01c-0.06-0.07-0.12-0.13-0.19-0.2c-1.33-1.44-1.86-3.28-2.16-5.17c-0.01-0.07-0.02-0.13-0.03-0.2
					c-0.06-0.33-0.1-0.65-0.15-0.98c-0.02-0.12-0.04-0.24-0.06-0.36c-0.02-0.11-0.04-0.22-0.05-0.33c-0.09-0.4-0.22-0.73-0.52-1.02
					c-0.26-0.15-0.49-0.18-0.79-0.22c-0.12-0.01-0.23-0.03-0.35-0.05c-0.12-0.01-0.24-0.03-0.36-0.05
					c-0.12-0.01-0.24-0.03-0.36-0.05C-121.09-242.49-121.09-242.49-124.27-241.65z"/>
				<path class="st0" d="M-103.15-153.93c0.08,0.07,0.16,0.12,0.24,0.19c4.03,3.12,5.77,8,6.4,12.94c0.19,1.8,0.2,3.71-0.22,5.48
					c-0.02,0.07-0.03,0.14-0.05,0.2c-0.34,1.49-0.92,2.92-1.81,4.17c-0.07,0.09-0.13,0.19-0.2,0.28c-0.95,1.3-2.12,2.42-3.43,3.35
					c-0.07,0.05-0.12,0.08-0.19,0.13c-0.91,0.66-1.84,1.3-2.79,1.92c-0.08,0.06-0.18,0.11-0.26,0.18c-3.4,2.23-6.09,3.07-10.18,2.43
					c-0.55-0.08-1.09-0.14-1.64-0.19c-3.15-0.29-6.24-2.01-8.48-4.19c-0.06-0.05-0.1-0.1-0.16-0.15c-0.4-0.39-0.74-0.8-1.08-1.25
					c-0.06-0.07-0.1-0.14-0.16-0.21c-0.16-0.2-0.31-0.41-0.47-0.62c-0.05-0.06-0.08-0.11-0.13-0.18c-1.29-1.77-2.19-3.85-2.56-6.01
					c-0.01-0.07-0.02-0.12-0.03-0.19c-0.23-1.54-0.04-3.14,0.1-4.68c0.03-0.33,0.07-0.66,0.09-1c0.33-3.8,1.32-6.96,3.92-9.81
					c0.06-0.07,0.11-0.12,0.17-0.19c3.23-3.42,8.31-4.96,12.84-5.49c0.14-0.02,0.29-0.04,0.43-0.06
					C-109.25-157.31-105.94-156.12-103.15-153.93z M-117.47-154.59c-0.12,0.04-0.12,0.04-0.25,0.07c-2.7,0.76-5.13,2.15-7.19,4.03
					c-0.07,0.06-0.13,0.11-0.2,0.18c-2.46,2.32-3.4,5.41-3.8,8.66c-0.01,0.09-0.02,0.19-0.04,0.28c-0.26,2.16-0.28,4.36,0.13,6.51
					c0.02,0.08,0.03,0.16,0.05,0.24c0.23,1.18,0.62,2.18,1.26,3.2c0.06,0.09,0.06,0.09,0.11,0.19c0.91,1.45,1.99,2.91,3.33,4
					c0.08,0.07,0.17,0.14,0.26,0.21c1.05,0.85,2.19,1.53,3.44,2.05c0.1,0.05,0.1,0.05,0.2,0.08c1.4,0.55,2.87,0.8,4.35,0.96
					c0.25,0.03,0.5,0.06,0.75,0.09c3.33,0.38,5.93-0.11,8.66-2.1c0.46-0.33,0.93-0.65,1.4-0.97c0.78-0.53,1.56-1.06,2.33-1.63
					c0.07-0.06,0.07-0.06,0.16-0.12c2.49-1.84,4.17-4.21,4.66-7.31c0.15-1.01,0.18-2.04,0.07-3.06c-0.05-0.44-0.07-0.87-0.07-1.31
					c-0.08-3.29-1.16-7.65-3.41-10.15c-0.07-0.07-0.13-0.15-0.2-0.23c-2.18-2.49-5.13-4.57-8.51-4.81
					C-112.49-155.66-115.07-155.25-117.47-154.59z"/>
				<path class="st0" d="M-167.75-180.8c0.85,0.73,1.58,1.53,2.28,2.4c0.07,0.08,0.14,0.18,0.21,0.26c1.06,1.34,1.93,2.8,2.73,4.31
					c0.06,0.1,0.11,0.2,0.17,0.31c1.25,2.43,1.1,5.1,0.43,7.68c-0.03,0.12-0.03,0.12-0.07,0.25c-0.64,2.47-1.75,4.75-3.47,6.63
					c-0.11,0.13-0.22,0.26-0.33,0.4c-2.53,2.85-6.7,5.2-10.53,5.45c-2.61,0.1-5.16-0.3-7.55-1.39c-0.1-0.05-0.2-0.08-0.31-0.13
					c-1.37-0.65-2.57-1.55-3.65-2.61c-0.14-0.14-0.28-0.28-0.43-0.41c-1.57-1.52-2.8-3.38-3.8-5.31c-0.03-0.06-0.06-0.11-0.08-0.17
					c-0.74-1.43-1.25-2.99-1.5-4.58c-0.01-0.07-0.03-0.15-0.04-0.22c-0.03-0.2-0.05-0.41-0.06-0.61c-0.01-0.09-0.01-0.18-0.02-0.27
					c-0.1-4.2,1.22-8.86,4.15-11.94C-183.7-186.74-173.82-185.97-167.75-180.8z M-188.82-179.72c-0.38,0.43-0.65,0.92-0.93,1.41
					c-0.05,0.07-0.08,0.15-0.13,0.22c-0.93,1.65-1.77,3.32-2.2,5.17c-0.02,0.07-0.04,0.15-0.06,0.22c-0.17,0.87-0.17,1.74-0.17,2.62
					c0,0.27,0,0.53,0,0.8c-0.02,1.98,0.39,3.79,1.25,5.57c0.05,0.09,0.08,0.19,0.13,0.28c0.44,0.89,0.96,1.7,1.54,2.5
					c0.04,0.06,0.08,0.11,0.13,0.18c0.5,0.69,1.05,1.34,1.64,1.96c0.07,0.07,0.14,0.15,0.21,0.23c2.33,2.44,5.97,3.96,9.32,4.07
					c1.19,0.02,2.34,0,3.49-0.31c0.09-0.03,0.09-0.03,0.2-0.05c3.86-1.06,7.68-4.02,9.68-7.46c1.65-2.92,2.15-6.51,1.27-9.75
					c-1.25-4.2-4.5-7.9-8.31-9.97c-2.1-1.11-4.18-1.57-6.53-1.55c-0.08,0-0.17,0-0.25,0.01
					C-182.25-183.53-186.06-182.33-188.82-179.72z"/>
				<path class="st0" d="M-110.4-224.26c0.38,0.33,0.75,0.67,1.12,1.02c0.07,0.06,0.13,0.11,0.2,0.18c1,0.94,1.82,2.16,2.5,3.36
					c0.04,0.07,0.07,0.12,0.11,0.19c1.99,3.45,2.4,7.23,1.4,11.07c-0.47,1.61-1.23,3.17-2.16,4.56c-0.04,0.05-0.07,0.1-0.1,0.16
					c-2.21,3.27-5.32,5.54-9.01,6.91c-0.11,0.04-0.22,0.08-0.33,0.12c-1.19,0.43-2.49,0.76-3.76,0.81c-0.06,0-0.12,0.01-0.19,0.01
					c-1.66,0.06-3.18-0.2-4.74-0.75c-0.09-0.03-0.18-0.07-0.27-0.09c-2.17-0.83-4.29-2.33-5.96-3.91c-0.08-0.08-0.18-0.17-0.27-0.25
					c-2.86-2.72-4.7-6.69-4.85-10.63c-0.06-3.4,1.03-6.73,3.16-9.4c0.05-0.07,0.1-0.12,0.15-0.19c0.38-0.47,0.76-0.93,1.15-1.4
					c0.07-0.09,0.07-0.09,0.15-0.18c2.49-2.95,5.22-5.25,9.21-5.67C-118.54-228.69-113.76-227.04-110.4-224.26z M-130.56-222.6
					c-0.17,0.19-0.33,0.37-0.49,0.57c-0.07,0.08-0.15,0.18-0.23,0.27c-1.82,2.1-3.32,4.43-3.95,7.17c-0.02,0.08-0.05,0.18-0.07,0.26
					c-0.74,3.4,0.31,6.91,2.11,9.79c0.3,0.45,0.6,0.87,0.93,1.3c0.08,0.12,0.08,0.12,0.18,0.25c0.8,1.09,1.98,1.79,3.09,2.51
					c0.52,0.34,1.01,0.7,1.51,1.08c1.62,1.24,3.19,1.84,5.24,1.85c0.07,0,0.14,0,0.21,0c0.16,0,0.32,0,0.47,0
					c0.23,0,0.47,0.01,0.69,0.01c2.15,0.02,4.08-0.5,6.02-1.42c0.06-0.03,0.11-0.06,0.18-0.08c1.32-0.64,2.54-1.49,3.61-2.5
					c0.19-0.18,0.38-0.34,0.58-0.5c2.56-2.24,4.07-5.57,4.56-8.87c0.01-0.07,0.02-0.13,0.03-0.2c0.17-1.15,0.21-2.22-0.02-3.37
					c-0.02-0.07-0.03-0.16-0.05-0.24c-0.47-2.23-1.37-4.42-2.84-6.18c-0.08-0.1-0.17-0.2-0.25-0.32c-0.47-0.57-0.94-1.09-1.52-1.54
					c-0.09-0.07-0.19-0.16-0.28-0.23C-116.97-228.05-125.1-228.56-130.56-222.6z"/>
			</g>
		</g>
	</g>
	<g id="icon_name_and_slogan_gap">
	</g>
	<g id="name_and_slogan_id">
		<g>
			<g id="nameDefaultGroup">
				<path id="namepathdata" class="st1" d="M-16.51-140.93c-0.71,0.09-1.38-0.09-2-0.53c-0.62-0.36-1.11-0.89-1.47-1.6l0,0
					l-35.2-55.87v55.73c0,0.8-0.31,1.38-0.93,1.73c-0.62,0.36-1.29,0.53-2,0.53l0,0c-0.8,0-1.51-0.18-2.13-0.53
					c-0.62-0.36-0.93-0.93-0.93-1.73l0,0v-63.87c0-0.98,0.31-1.78,0.93-2.4c0.62-0.62,1.33-0.84,2.13-0.67l0,0h0.67
					c0.71-0.09,1.38,0.09,2,0.53c0.53,0.36,1.02,0.89,1.47,1.6l0,0l35.07,55.73v-55.6c0-0.8,0.31-1.38,0.93-1.73
					c0.71-0.36,1.42-0.53,2.13-0.53l0,0c0.8,0,1.51,0.18,2.13,0.53s0.93,0.93,0.93,1.73l0,0V-144c0,0.89-0.31,1.69-0.93,2.4
					c-0.71,0.62-1.47,0.84-2.27,0.67l0,0H-16.51L-16.51-140.93 M8.55-146.8c-2.13-2.31-3.64-5.07-4.53-8.27
					c-0.98-3.29-1.47-6.71-1.47-10.27l0,0c0-8.36,1.87-14.84,5.6-19.47l0,0c1.78-2.4,4-4.18,6.67-5.33c2.76-1.24,5.6-1.82,8.53-1.73
					l0,0c2.67-0.09,5.2,0.44,7.6,1.6c2.49,1.07,4.58,2.67,6.27,4.8l0,0c1.69,2.04,2.98,4.49,3.87,7.33c0.8,2.84,1.2,5.78,1.2,8.8
					l0,0c0,0.98-0.04,1.78-0.13,2.4c-0.09,0.71-0.36,1.29-0.8,1.73l0,0c-0.71,0.62-1.91,0.93-3.6,0.93l0,0H8.69
					c0.09,6.04,1.42,10.53,4,13.47l0,0c1.51,1.78,3.38,3.11,5.6,4c2.13,0.89,4.36,1.33,6.67,1.33l0,0l1.2,0.13
					c1.78,0,3.51-0.4,5.2-1.2c1.69-0.8,3.47-1.87,5.33-3.2l0,0c0.36-0.27,0.76-0.31,1.2-0.13c0.44,0.18,0.71,0.49,0.8,0.93l0,0
					c0.44,0.53,0.67,1.24,0.67,2.13l0,0c0.18,0.62,0.13,1.24-0.13,1.87c-0.18,0.62-0.53,1.07-1.07,1.33l0,0
					c-3.47,2.31-7.87,3.47-13.2,3.47l0,0c-3.2,0-6.22-0.53-9.07-1.6C13.04-142.89,10.6-144.58,8.55-146.8L8.55-146.8 M12.95-182
					c-2.67,3.2-4.09,7.51-4.27,12.93l0,0h27.87c0-5.33-1.16-9.64-3.47-12.93l0,0c-1.07-1.6-2.49-2.8-4.27-3.6
					c-1.69-0.8-3.51-1.2-5.47-1.2l0,0c-1.96,0-3.87,0.4-5.73,1.2C15.84-184.8,14.29-183.6,12.95-182L12.95-182 M51.49-142.93
					c-0.09-0.44,0.04-0.89,0.4-1.33c0.27-0.53,0.44-0.8,0.53-0.8l0,0l14.27-21.07l-14-20.67c-0.09-0.09-0.27-0.36-0.53-0.8
					c-0.36-0.44-0.53-0.89-0.53-1.33l0,0c0-0.71,0.31-1.29,0.93-1.73c0.53-0.36,1.07-0.49,1.6-0.4l0,0h0.93
					c0.53-0.09,1.02,0.04,1.47,0.4c0.36,0.36,0.8,0.84,1.33,1.47l0,0l12.27,18.13l12.4-18.13c0.89-1.33,1.78-1.96,2.67-1.87l0,0
					h0.93c0.53-0.09,1.11,0.04,1.73,0.4c0.53,0.44,0.8,1.02,0.8,1.73l0,0c0,0.44-0.18,0.89-0.53,1.33c-0.27,0.44-0.44,0.71-0.53,0.8
					l0,0l-14,20.67l14.27,21.07c0.09,0.18,0.27,0.44,0.53,0.8c0.27,0.44,0.4,0.8,0.4,1.07l0,0v0.27c0,0.71-0.27,1.24-0.8,1.6
					c-0.53,0.36-1.11,0.49-1.73,0.4l0,0h-0.93c-0.8,0.09-1.69-0.53-2.67-1.87l0,0l-12.53-18.27L57.62-142.8
					c-0.98,1.33-1.87,1.96-2.67,1.87l0,0h-0.93c-0.62,0.09-1.2-0.04-1.73-0.4C51.75-141.69,51.49-142.22,51.49-142.93L51.49-142.93
					 M122.15-149.07c0.27,0,0.53,0.13,0.8,0.4s0.44,0.58,0.53,0.93l0,0c0.36,0.71,0.53,1.38,0.53,2l0,0c0,1.33-0.44,2.31-1.33,2.93
					l0,0c-1.96,1.69-4.93,2.58-8.93,2.67l0,0c-3.47,0-6.04-0.89-7.73-2.67l0,0c-1.87-1.96-2.8-4.84-2.8-8.67l0,0v-34.27h-7.6
					c-0.53,0.09-0.98-0.18-1.33-0.8c-0.27-0.53-0.4-1.11-0.4-1.73l0,0c0-0.71,0.13-1.38,0.4-2c0.36-0.53,0.8-0.8,1.33-0.8l0,0h7.6
					V-206c-0.09-0.8,0.18-1.38,0.8-1.73c0.62-0.44,1.29-0.67,2-0.67l0,0c0.71,0,1.38,0.22,2,0.67c0.62,0.36,0.93,0.93,0.93,1.73l0,0
					v14.93h5.33c0.27-0.71,0.76-1.29,1.47-1.73c0.71-0.36,1.42-0.53,2.13-0.53l0,0c1.07,0,2,0.36,2.8,1.07c0.8,0.8,1.2,1.73,1.2,2.8
					l0,0c0,1.07-0.4,1.96-1.2,2.67c-0.8,0.71-1.73,1.07-2.8,1.07l0,0h-8.93v33.47c-0.18,1.69,0.22,3.24,1.2,4.67
					c0.98,1.51,2.27,2.18,3.87,2l0,0c1.16,0.18,2.18,0.04,3.07-0.4c0.98-0.44,1.91-0.98,2.8-1.6c0.8-0.62,1.38-1.07,1.73-1.33l0,0
					C121.8-149.02,121.98-149.07,122.15-149.07L122.15-149.07 M169.89-170.4c1.42,1.6,2.49,3.47,3.2,5.6
					c0.71,2.22,1.02,4.49,0.93,6.8l0,0c0.09,2.49-0.36,4.89-1.33,7.2c-0.89,2.31-2.22,4.22-4,5.73l0,0
					c-3.73,3.29-8.71,4.93-14.93,4.93l0,0c-5.78,0-11.42-1.64-16.93-4.93l0,0c-0.62-0.27-1.11-0.76-1.47-1.47
					c-0.44-0.71-0.67-1.47-0.67-2.27l0,0c0-0.89,0.22-1.69,0.67-2.4l0,0c0.36-0.8,0.98-1.2,1.87-1.2l0,0c0.53,0,1.2,0.31,2,0.93l0,0
					c2.04,1.96,4.31,3.38,6.8,4.27c2.49,0.98,5.02,1.38,7.6,1.2l0,0c4.27,0,7.73-1.16,10.4-3.47l0,0c1.16-0.98,2.04-2.22,2.67-3.73
					c0.62-1.51,0.89-3.11,0.8-4.8l0,0c0.09-1.87-0.18-3.69-0.8-5.47c-0.62-1.69-1.6-3.11-2.93-4.27l0,0
					c-1.07-1.07-2.36-2.04-3.87-2.93s-3.2-1.69-5.07-2.4c-1.78-0.71-2.93-1.2-3.47-1.47l0,0c-3.2-1.16-5.82-2.22-7.87-3.2
					c-1.96-0.98-3.73-2.31-5.33-4l0,0c-1.33-1.42-2.36-3.2-3.07-5.33c-0.62-2.04-0.89-4.13-0.8-6.27l0,0
					c-0.09-2.49,0.31-4.84,1.2-7.07c0.98-2.13,2.31-3.96,4-5.47l0,0c1.96-1.69,4.18-2.98,6.67-3.87c2.4-0.8,4.93-1.2,7.6-1.2l0,0
					c5.96,0.09,11.16,1.51,15.6,4.27l0,0c0.62,0.27,1.16,0.71,1.6,1.33c0.44,0.71,0.67,1.42,0.67,2.13l0,0
					c0.09,0.89-0.09,1.64-0.53,2.27c-0.53,0.62-1.11,0.93-1.73,0.93l0,0c-0.36,0-0.71-0.13-1.07-0.4l0,0
					c-3.38-1.69-6.09-2.93-8.13-3.73c-1.96-0.71-4.04-1.02-6.27-0.93l0,0c-3.82,0-7.07,1.16-9.73,3.47l0,0
					c-1.07,0.89-1.91,2.13-2.53,3.73c-0.53,1.51-0.8,3.11-0.8,4.8l0,0c0,3.2,0.8,5.64,2.4,7.33l0,0c0.71,0.8,1.51,1.51,2.4,2.13
					c0.98,0.62,2.09,1.2,3.33,1.73c1.16,0.44,1.91,0.71,2.27,0.8l0,0c0.8,0.27,2.8,1.07,6,2.4l0,0c2.76,1.16,5.16,2.36,7.2,3.6
					C166.46-173.82,168.29-172.27,169.89-170.4L169.89-170.4 M212.55-149.07c0.27,0,0.53,0.13,0.8,0.4
					c0.27,0.27,0.44,0.58,0.53,0.93l0,0c0.36,0.71,0.53,1.38,0.53,2l0,0c0,1.33-0.44,2.31-1.33,2.93l0,0
					c-1.96,1.69-4.89,2.58-8.8,2.67l0,0c-3.47,0-6.09-0.89-7.87-2.67l0,0c-1.87-1.96-2.8-4.84-2.8-8.67l0,0v-34.27h-7.6
					c-0.53,0.09-0.93-0.18-1.2-0.8c-0.36-0.53-0.53-1.11-0.53-1.73l0,0c0-0.71,0.18-1.38,0.53-2c0.27-0.53,0.67-0.8,1.2-0.8l0,0h7.6
					V-206c0-0.8,0.27-1.38,0.8-1.73c0.62-0.44,1.29-0.67,2-0.67l0,0c0.71,0,1.38,0.22,2,0.67c0.71,0.36,1.07,0.93,1.07,1.73l0,0
					v14.93h5.2c0.36-0.71,0.84-1.29,1.47-1.73c0.71-0.36,1.42-0.53,2.13-0.53l0,0c1.16,0,2.09,0.36,2.8,1.07
					c0.8,0.8,1.2,1.73,1.2,2.8l0,0c0,1.07-0.4,1.96-1.2,2.67c-0.71,0.71-1.64,1.07-2.8,1.07l0,0h-8.8v33.47
					c-0.27,1.69,0.13,3.24,1.2,4.67c0.98,1.51,2.27,2.18,3.87,2l0,0c1.07,0.18,2.09,0.04,3.07-0.4c0.98-0.44,1.87-0.98,2.67-1.6
					c0.8-0.62,1.38-1.07,1.73-1.33l0,0C212.29-149.02,212.46-149.07,212.55-149.07L212.55-149.07 M236.82-140.13
					c-2.49,0.18-4.84-0.36-7.07-1.6c-2.31-1.24-4.13-3.02-5.47-5.33c-1.42-2.22-2.04-4.71-1.87-7.47l0,0
					c-0.09-2.58,0.4-4.98,1.47-7.2c1.16-2.31,2.76-4.09,4.8-5.33l0,0c4.27-2.93,10.04-4.44,17.33-4.53l0,0h7.07
					c-0.09-2.49-0.31-4.67-0.67-6.53c-0.36-1.96-0.98-3.64-1.87-5.07l0,0c-1.78-2.31-4.58-3.47-8.4-3.47l0,0
					c-1.6-0.09-3.16,0.13-4.67,0.67c-1.6,0.53-3.42,1.33-5.47,2.4l0,0l-2.27,1.2l-0.8,0.13c-0.71,0-1.24-0.36-1.6-1.07l0,0
					c-0.36-0.53-0.53-1.24-0.53-2.13l0,0c0-0.62,0.13-1.16,0.4-1.6c0.27-0.53,0.67-0.93,1.2-1.2l0,0c4-2.22,8.62-3.42,13.87-3.6l0,0
					c5.96,0,10.22,1.69,12.8,5.07l0,0c1.51,1.87,2.49,4.09,2.93,6.67c0.53,2.49,0.84,5.38,0.93,8.67l0,0v15.87
					c-0.09,1.87,0,3.69,0.27,5.47c0.27,1.78,0.67,3.96,1.2,6.53l0,0c0.18,0.53,0.04,1.02-0.4,1.47c-0.36,0.44-0.84,0.76-1.47,0.93
					l0,0c-0.36,0.09-0.71,0.13-1.07,0.13l0,0c-0.44,0-0.89-0.13-1.33-0.4l0,0c-1.24-2.4-2.09-5.87-2.53-10.4l0,0
					c-0.98,3.64-3.11,6.49-6.4,8.53C243.93-141.29,240.46-140.22,236.82-140.13L236.82-140.13 M232.29-163.33
					c-1.33,0.8-2.4,2-3.2,3.6s-1.16,3.24-1.07,4.93l0,0c-0.09,1.87,0.31,3.56,1.2,5.07c0.98,1.51,2.22,2.71,3.73,3.6
					c1.51,0.89,3.11,1.24,4.8,1.07l0,0c2.67,0,5.2-0.84,7.6-2.53c2.31-1.69,4.18-3.91,5.6-6.67c1.42-2.76,2.13-5.6,2.13-8.53l0,0
					v-3.87h-7.73c-2.76,0.18-5.16,0.49-7.2,0.93C236.11-165.29,234.15-164.49,232.29-163.33L232.29-163.33 M280.42-179.33
					c0.89-3.64,2.49-6.71,4.8-9.2c2.31-2.49,5.02-3.64,8.13-3.47l0,0c2.4,0,4.62,0.53,6.67,1.6l0,0c1.78,0.8,2.67,1.87,2.67,3.2l0,0
					c0,0.98-0.27,1.82-0.8,2.53l0,0c-0.18,0.36-0.53,0.53-1.07,0.53l0,0c-0.18,0-0.31,0-0.4,0l0,0c-0.27-0.09-0.89-0.36-1.87-0.8
					l0,0c-1.24-0.62-2.31-1.02-3.2-1.2c-0.89-0.27-1.78-0.36-2.67-0.27l0,0c-1.78-0.09-3.42,0.4-4.93,1.47
					c-1.51,0.98-2.71,2.36-3.6,4.13l0,0c-2.31,4-3.51,9.16-3.6,15.47l0,0v22.4c0,0.71-0.31,1.2-0.93,1.47
					c-0.62,0.36-1.29,0.53-2,0.53l0,0c-0.71,0-1.33-0.18-1.87-0.53c-0.62-0.27-0.93-0.76-0.93-1.47l0,0v-46
					c0-0.71,0.31-1.24,0.93-1.6c0.53-0.36,1.16-0.53,1.87-0.53l0,0c0.71,0,1.38,0.18,2,0.53c0.53,0.36,0.8,0.89,0.8,1.6l0,0V-179.33
					L280.42-179.33z"/>
			</g>
		</g>
		<g>
			<g id="sloganDefaultGroup">
			</g>
		</g>
	</g>
</g>
</svg>
